<svg width="129" height="200" viewBox="0 0 129 200" fill="none" xmlns="http://www.w3.org/2000/svg">
<path d="M128.854 177.165C128.854 189.722 118.576 200 106.019 200H22.8354C10.2779 200 0 189.722 0 177.165V22.8354C0 10.2779 10.2779 0 22.8354 0H106.019C118.576 0 128.854 10.2779 128.854 22.8354V177.165Z" fill="#626262"/>
<path d="M11.7177 93.4214H28.9943C33.7133 93.4214 37.0727 94.8211 39.0323 97.6205C40.192 99.2602 40.7919 101.18 40.7919 103.339C40.7919 105.859 40.0721 107.938 38.6323 109.538C37.8725 110.378 36.8327 111.178 35.433 111.898C37.4726 112.698 39.0323 113.537 40.0321 114.537C41.8317 116.297 42.7115 118.696 42.7115 121.736C42.7115 124.295 41.9117 126.655 40.272 128.734C37.8325 131.854 33.9933 133.413 28.6743 133.413H11.6777V93.4214H11.7177ZM26.9547 110.338C29.2742 110.338 31.0739 110.018 32.3536 109.378C34.3532 108.378 35.393 106.579 35.393 103.979C35.393 101.38 34.3132 99.6202 32.1936 98.7003C30.9939 98.1804 29.1942 97.9405 26.7947 97.9405H17.0367V110.338H26.9547ZM28.7943 128.774C32.1536 128.774 34.5132 127.815 35.9529 125.895C36.8327 124.695 37.3126 123.215 37.3126 121.496C37.3126 118.576 35.9929 116.617 33.3934 115.577C31.9937 115.017 30.154 114.737 27.8745 114.737H17.0367V128.814H28.7943V128.774Z" fill="#D0D0D0"/>
<path d="M46.8706 93.4214H65.027C68.0264 93.4214 70.4659 93.8613 72.4255 94.7411C76.1048 96.4608 77.9444 99.5802 77.9444 104.179C77.9444 106.579 77.4645 108.538 76.4647 110.058C75.4649 111.578 74.1052 112.818 72.3055 113.737C73.8652 114.377 75.025 115.217 75.8248 116.257C76.6247 117.297 77.0646 118.976 77.1446 121.296L77.3445 126.655C77.3845 128.174 77.5445 129.294 77.7444 130.054C78.0644 131.334 78.6642 132.134 79.5041 132.494V133.373H72.8654C72.6654 133.013 72.5455 132.574 72.4255 132.054C72.3055 131.494 72.2255 130.454 72.1456 128.894L71.8256 122.216C71.7056 119.616 70.7458 117.856 68.9862 116.977C67.9864 116.497 66.3867 116.257 64.2671 116.257H52.2695V133.413H46.8706V93.4214ZM64.4271 111.738C66.9066 111.738 68.8662 111.218 70.3059 110.218C71.7456 109.218 72.4655 107.379 72.4655 104.739C72.4655 101.9 71.4657 99.9401 69.4661 98.9403C68.3863 98.3804 66.9466 98.1404 65.147 98.1404H52.2695V111.818H64.4271V111.738Z" fill="#D0D0D0"/>
<path d="M111.938 96.3407C114.697 99.0202 116.217 102.02 116.537 105.419H111.258C110.658 102.859 109.498 100.82 107.739 99.3001C105.979 97.7804 103.539 97.0606 100.34 97.0606C96.4609 97.0606 93.3415 98.4603 90.9819 101.22C88.6224 103.979 87.4227 108.218 87.4227 113.937C87.4227 118.616 88.5024 122.415 90.622 125.335C92.7816 128.254 95.9809 129.694 100.22 129.694C104.139 129.694 107.139 128.174 109.178 125.095C110.258 123.495 111.058 121.376 111.618 118.736H116.897C116.417 122.935 114.897 126.455 112.258 129.334C109.098 132.773 104.899 134.493 99.5802 134.493C94.9811 134.493 91.1419 133.093 88.0225 130.294C83.9034 126.575 81.8638 120.816 81.8638 113.057C81.8638 107.179 83.4235 102.34 86.5028 98.5403C89.8222 94.4211 94.4213 92.3815 100.3 92.3815C105.299 92.3415 109.178 93.6613 111.938 96.3407Z" fill="#D0D0D0"/>
<path d="M32.8735 137.053V143.211H19.3562V151.93H32.0737V158.088H19.3562V174.205H11.7178V137.053H32.8735Z" fill="#D0D0D0"/>
<path d="M34.5532 147.85C34.8332 145.451 35.3931 143.451 36.3129 141.732C37.1927 140.052 38.5124 138.692 40.1921 137.732C41.8718 136.773 44.1913 136.293 47.0307 136.293C49.9102 136.293 52.1897 136.773 53.8694 137.732C55.549 138.692 56.8688 140.012 57.7486 141.732C58.6284 143.411 59.2283 145.451 59.5083 147.85C59.7882 150.21 59.9082 152.809 59.9082 155.649C59.9082 158.488 59.7882 161.088 59.5083 163.447C59.2283 165.807 58.6684 167.846 57.7486 169.526C56.8688 171.206 55.549 172.525 53.8694 173.445C52.1897 174.365 49.9102 174.805 47.0307 174.805C44.1513 174.805 41.8718 174.365 40.1921 173.445C38.5124 172.565 37.1927 171.246 36.3129 169.526C35.4331 167.846 34.8332 165.807 34.5532 163.447C34.2733 161.088 34.1533 158.488 34.1533 155.649C34.1533 152.809 34.2733 150.25 34.5532 147.85ZM41.9917 162.008C42.1117 163.767 42.3517 165.167 42.7516 166.287C43.1115 167.367 43.6314 168.166 44.3513 168.686C45.0311 169.206 45.951 169.446 47.0707 169.446C48.1905 169.446 49.1103 169.206 49.7902 168.686C50.4701 168.166 50.9899 167.367 51.3899 166.287C51.7498 165.207 51.9898 163.767 52.1497 162.008C52.2697 160.248 52.3497 158.128 52.3497 155.649C52.3497 153.169 52.2697 151.05 52.1497 149.29C52.0297 147.57 51.7898 146.131 51.3899 145.011C51.0299 143.891 50.4701 143.091 49.7902 142.571C49.1103 142.092 48.1905 141.812 47.0707 141.812C45.951 141.812 45.0311 142.052 44.3513 142.571C43.6714 143.091 43.1515 143.891 42.7516 145.011C42.3917 146.131 42.1517 147.53 41.9917 149.29C41.8718 151.01 41.7918 153.129 41.7918 155.649C41.7918 158.128 41.8318 160.248 41.9917 162.008Z" fill="#D0D0D0"/>
<path d="M62.7075 147.85C62.9875 145.451 63.5474 143.451 64.4672 141.732C65.387 140.052 66.6667 138.692 68.3464 137.732C70.0261 136.773 72.3056 136.293 75.185 136.293C78.0645 136.293 80.344 136.773 82.0237 137.732C83.7033 138.692 85.0231 140.012 85.9029 141.732C86.8227 143.411 87.3826 145.451 87.6625 147.85C87.9425 150.21 88.0625 152.809 88.0625 155.649C88.0625 158.488 87.9425 161.088 87.6625 163.447C87.3826 165.807 86.8227 167.846 85.9029 169.526C85.0231 171.206 83.7033 172.525 82.0237 173.445C80.344 174.365 78.0645 174.805 75.185 174.805C72.3056 174.805 70.0261 174.365 68.3464 173.445C66.6667 172.565 65.347 171.246 64.4672 169.526C63.5874 167.846 62.9875 165.807 62.7075 163.447C62.4276 161.088 62.3076 158.488 62.3076 155.649C62.3076 152.809 62.4276 150.25 62.7075 147.85ZM70.1061 162.008C70.226 163.767 70.466 165.167 70.8659 166.287C71.2258 167.367 71.7457 168.166 72.4656 168.686C73.1454 169.206 74.0653 169.446 75.185 169.446C76.3048 169.446 77.2246 169.206 77.9045 168.686C78.5844 168.166 79.1043 167.367 79.5042 166.287C79.8641 165.207 80.1041 163.767 80.264 162.008C80.384 160.248 80.464 158.128 80.464 155.649C80.464 153.169 80.384 151.05 80.264 149.29C80.144 147.57 79.9041 146.131 79.5042 145.011C79.1442 143.891 78.6244 143.091 77.9045 142.571C77.2246 142.092 76.3048 141.812 75.185 141.812C74.0653 141.812 73.1454 142.052 72.4656 142.571C71.7857 143.091 71.2258 143.891 70.8659 145.011C70.506 146.131 70.266 147.53 70.1061 149.29C69.9861 151.01 69.9061 153.129 69.9061 155.649C69.9461 158.128 69.9861 160.248 70.1061 162.008Z" fill="#D0D0D0"/>
<path d="M104.139 137.053C106.779 137.053 108.938 137.493 110.538 138.332C112.138 139.172 113.417 140.412 114.337 141.972C115.217 143.531 115.857 145.451 116.177 147.65C116.497 149.85 116.657 152.37 116.657 155.089C116.657 158.368 116.457 161.168 116.057 163.607C115.657 166.007 114.937 168.006 113.977 169.566C112.977 171.126 111.658 172.286 110.018 173.045C108.338 173.805 106.259 174.205 103.699 174.205H91.6616V137.053H104.139ZM102.659 168.686C104.019 168.686 105.059 168.446 105.899 168.006C106.699 167.567 107.338 166.807 107.818 165.767C108.298 164.727 108.618 163.367 108.778 161.648C108.938 159.968 109.018 157.848 109.018 155.289C109.018 153.169 108.938 151.33 108.818 149.73C108.698 148.13 108.378 146.811 107.938 145.731C107.498 144.691 106.859 143.891 105.979 143.331C105.099 142.811 103.939 142.532 102.499 142.532H99.2601V168.646H102.659V168.686Z" fill="#D0D0D0"/>
<path d="M17.6365 180.724C17.3965 180.244 16.9566 180.044 16.2768 180.044C15.9168 180.044 15.6369 180.124 15.3969 180.324C15.157 180.524 14.997 180.804 14.8371 181.244C14.7171 181.684 14.5971 182.204 14.5571 182.923C14.5171 183.603 14.4771 184.443 14.4771 185.443C14.4771 186.483 14.5171 187.363 14.5971 188.002C14.6771 188.642 14.7971 189.162 14.917 189.522C15.077 189.882 15.277 190.122 15.4769 190.242C15.7169 190.362 15.9568 190.442 16.2768 190.442C16.5167 190.442 16.7567 190.402 16.9966 190.322C17.2366 190.242 17.3965 190.082 17.5565 189.802C17.7165 189.562 17.8365 189.202 17.9564 188.722C18.0364 188.242 18.0764 187.642 18.0764 186.883H20.9558C20.9558 187.642 20.9158 188.362 20.7959 189.042C20.6759 189.722 20.4359 190.322 20.116 190.842C19.7961 191.362 19.3162 191.762 18.7563 192.042C18.1564 192.322 17.3965 192.481 16.4767 192.481C15.3969 192.481 14.5571 192.322 13.9172 191.962C13.2774 191.642 12.7975 191.122 12.4375 190.482C12.1176 189.842 11.8777 189.082 11.7977 188.202C11.7177 187.323 11.6377 186.323 11.6377 185.283C11.6377 184.243 11.6777 183.243 11.7977 182.363C11.8777 181.484 12.1176 180.724 12.4375 180.084C12.7575 179.444 13.2774 178.964 13.9172 178.604C14.5571 178.244 15.3969 178.084 16.4767 178.084C17.5165 178.084 18.3164 178.244 18.8762 178.564C19.4761 178.884 19.916 179.284 20.196 179.804C20.4759 180.284 20.6759 180.844 20.7559 181.444C20.8359 182.004 20.8758 182.563 20.8758 183.083H17.9964C17.9964 181.924 17.8764 181.164 17.6365 180.724Z" fill="#D0D0D0"/>
<path d="M30.0741 180.524H24.9951V183.803H29.7542V186.123H24.9951V189.882H30.2741V192.162H22.1157V178.204H30.0741V180.524Z" fill="#D0D0D0"/>
<path d="M36.5128 178.204C37.7126 178.204 38.6324 178.484 39.3123 179.084C39.9921 179.684 40.3121 180.564 40.3121 181.804C40.3121 182.763 40.1121 183.523 39.7522 184.083C39.3523 184.683 38.7524 185.043 37.9525 185.243V185.283C38.6724 185.403 39.1923 185.603 39.5122 185.963C39.8322 186.323 40.0321 186.883 40.1121 187.642C40.1521 187.922 40.1521 188.202 40.1921 188.482C40.1921 188.802 40.2321 189.122 40.2321 189.522C40.2721 190.282 40.3121 190.842 40.3521 191.242C40.4321 191.642 40.592 191.882 40.872 192.042V192.162H37.7526C37.5926 191.962 37.5126 191.722 37.4726 191.482C37.4326 191.242 37.3927 190.962 37.3927 190.682L37.3127 188.002C37.2727 187.442 37.1527 187.043 36.9128 186.723C36.6728 186.403 36.2329 186.243 35.633 186.243H34.1133V192.162H31.2339V178.204H36.5128ZM35.2731 184.323C35.9529 184.323 36.4728 184.163 36.8728 183.843C37.2327 183.523 37.4326 183.003 37.4326 182.244C37.4326 180.964 36.7528 180.324 35.433 180.324H34.0733V184.363H35.2731V184.323Z" fill="#D0D0D0"/>
<path d="M49.7501 180.524H46.6307V192.162H43.7912V180.524H40.6719V178.204H49.7501V180.524Z" fill="#D0D0D0"/>
<path d="M53.5093 178.204H50.6299V192.162H53.5093V178.204Z" fill="#D0D0D0"/>
<path d="M63.0673 178.204V180.524H57.9883V183.803H62.7474V186.123H57.9883V192.162H55.1089V178.204H63.0673Z" fill="#D0D0D0"/>
<path d="M66.8667 178.204H63.9873V192.162H66.8667V178.204Z" fill="#D0D0D0"/>
<path d="M74.1853 180.724C73.9454 180.244 73.5055 180.044 72.8256 180.044C72.4657 180.044 72.1857 180.124 71.9458 180.324C71.7058 180.524 71.5459 180.804 71.3859 181.244C71.2659 181.684 71.1459 182.204 71.1059 182.923C71.066 183.603 71.026 184.443 71.026 185.443C71.026 186.483 71.066 187.363 71.1459 188.002C71.2259 188.642 71.3459 189.162 71.4659 189.522C71.6258 189.882 71.8258 190.122 72.0258 190.242C72.2657 190.362 72.5057 190.442 72.8256 190.442C73.0655 190.442 73.3055 190.402 73.5455 190.322C73.7454 190.242 73.9454 190.082 74.1053 189.802C74.2653 189.562 74.3853 189.202 74.5053 188.722C74.5853 188.242 74.6252 187.642 74.6252 186.883H77.5047C77.5047 187.642 77.4247 188.362 77.3447 189.042C77.2247 189.722 76.9848 190.322 76.6648 190.842C76.3449 191.362 75.865 191.762 75.3051 192.042C74.7052 192.322 73.9454 192.481 73.0256 192.481C71.9458 192.481 71.1059 192.322 70.4661 191.962C69.8262 191.642 69.3463 191.122 68.9864 190.482C68.6664 189.842 68.4265 189.082 68.3465 188.202C68.2665 187.323 68.1865 186.323 68.1865 185.283C68.1865 184.243 68.2265 183.243 68.3465 182.363C68.4665 181.484 68.6664 180.724 68.9864 180.084C69.3063 179.444 69.8262 178.964 70.4661 178.604C71.1059 178.244 71.9458 178.084 73.0256 178.084C74.0653 178.084 74.8652 178.244 75.4251 178.564C76.025 178.884 76.4649 179.284 76.7448 179.804C77.0248 180.284 77.2247 180.844 77.3047 181.444C77.3847 182.004 77.4247 182.563 77.4247 183.083H74.5453C74.5453 181.924 74.4253 181.164 74.1853 180.724Z" fill="#D0D0D0"/>
<path d="M84.9831 178.204L88.7423 192.162H85.7429L85.1031 189.202H81.3038L80.664 192.162H77.6646L81.4238 178.204H84.9831ZM84.6232 186.923L83.2634 180.644H83.2234L81.8637 186.923H84.6232Z" fill="#D0D0D0"/>
<path d="M96.4605 180.524H93.3811V192.162H90.5017V180.524H87.3823V178.204H96.4605V180.524Z" fill="#D0D0D0"/>
<path d="M105.139 180.524H100.06V183.803H104.859V186.123H100.06V189.882H105.339V192.162H97.2207V178.204H105.139V180.524Z" fill="#D0D0D0"/>
<path d="M111.138 178.204C112.137 178.204 112.937 178.364 113.537 178.684C114.137 179.004 114.617 179.444 114.977 180.044C115.297 180.644 115.537 181.364 115.657 182.164C115.777 183.003 115.817 183.923 115.817 184.963C115.817 186.203 115.737 187.243 115.577 188.162C115.417 189.082 115.177 189.802 114.777 190.402C114.417 191.002 113.897 191.442 113.297 191.722C112.657 192.002 111.897 192.162 110.938 192.162H106.418V178.204H111.138ZM110.578 190.082C111.098 190.082 111.497 190.002 111.777 189.842C112.057 189.682 112.337 189.402 112.497 189.002C112.697 188.602 112.777 188.082 112.857 187.442C112.937 186.803 112.937 186.003 112.937 185.043C112.937 184.243 112.897 183.563 112.857 182.963C112.817 182.363 112.697 181.884 112.537 181.484C112.377 181.084 112.137 180.804 111.817 180.604C111.497 180.404 111.058 180.284 110.498 180.284H109.298V190.082H110.578Z" fill="#D0D0D0"/>
<path d="M14.5972 45.8708C14.5972 45.8708 33.5934 64.867 44.2712 88.0224C44.2712 88.0224 72.1856 34.5931 112.538 9.63806C112.538 9.63806 61.4678 30.9938 43.0715 59.5081C43.1115 59.5481 25.8749 43.5113 14.5972 45.8708Z" fill="#D0D0D0"/>
</svg>
