<svg width="1143" height="752" viewBox="0 0 1143 752" fill="none" xmlns="http://www.w3.org/2000/svg">
<path fill-rule="evenodd" clip-rule="evenodd" d="M601.214 338.307H593.896L588.746 337.63L585.358 341.56L582.512 342.508L580.48 344.27L576.956 341.424L575.601 334.106L573.433 333.699V330.989L569.096 328.956L566.792 332.073L567.063 335.597L566.25 336.816L561.914 336.681L560.694 340.746L557.848 338.985L553.376 341.831L550.937 340.746L545.109 338.849H541.179L539.011 338.578L535.081 336.274L534.674 339.391L529.118 341.017L529.254 348.065L525.866 350.775L520.445 351.995L519.903 356.06L514.617 357.144L506.622 353.892L505.944 364.733L505.267 371.103L508.655 372.322L506.486 377.066L510.145 383.977L511.636 389.398L517.463 390.889L518.954 396.309L513.669 404.169L526.679 408.506L533.861 407.286L538.333 408.371L539.553 406.473L544.703 407.151L553.647 403.627L552.563 396.309L555.68 391.431H561.101L561.372 389.127L566.792 387.907L569.638 388.72L571.942 386.281L570.451 381.131L572.484 375.981L576.55 373.813L572.484 368.121L579.396 368.392L580.615 365.275L579.531 361.887L582.242 358.228L580.344 353.892L577.769 350.097L581.022 346.303L588.204 344.541L596.064 343.457L599.317 341.831L603.111 340.882L601.214 338.307V338.307Z" fill="white" stroke="#C9C9C9" stroke-width="2" stroke-linejoin="round"/>
<path fill-rule="evenodd" clip-rule="evenodd" d="M204.956 293.179L202.246 297.38L202.924 299.955L204.279 301.31L203.601 303.885L203.466 309.713L204.414 313.778L208.48 316.624L208.751 318.521L210.106 319.063L212.952 314.998L213.088 312.152L215.256 310.932V308.764L212.139 306.596L210.919 303.072L211.461 300.226L210.784 297.109L209.022 296.296L207.26 294.128L205.499 294.805L204.956 293.179V293.179Z" fill="#2C2948" stroke="#C9C9C9" stroke-width="2" stroke-linejoin="round"/>
<path fill-rule="evenodd" clip-rule="evenodd" d="M396.716 326.517L395.497 320.554L392.109 319.063L388.721 316.76L390.076 314.049L385.875 311.068L386.823 309.035L383.842 307.544L381.945 305.24L372.594 306.596L374.356 309.577V313.778L380.047 315.811L383.3 318.386L384.655 318.115L387.094 320.419H390.211L390.482 321.774L394.277 326.788L396.716 326.517V326.517Z" fill="#2C2948" stroke="#C9C9C9" stroke-width="2" stroke-linejoin="round"/>
<path fill-rule="evenodd" clip-rule="evenodd" d="M181.512 243.714L178.395 242.088L175.278 242.495L169.857 239.92L167.553 240.598L164.03 243.985L158.88 241.275L156.847 245.205L154.543 246.289L155.899 251.71L155.356 253.201L153.053 251.439L149.8 251.168L145.193 252.794L139.23 252.388L138.417 254.556L134.893 252.252L132.86 252.659L133.131 254.149L132.183 256.318L135.3 257.808L138.823 258.079L143.024 259.299L143.702 257.673L150.207 256.182L151.968 259.164L161.726 261.332L167.418 261.874L170.67 259.977L176.497 259.841L177.717 258.35L179.479 252.93L177.988 251.168H181.783L182.054 247.644L181.105 244.799L181.512 243.714V243.714Z" fill="#2C2948" stroke="#C9C9C9" stroke-width="2" stroke-linejoin="round"/>
<path fill-rule="evenodd" clip-rule="evenodd" d="M384.655 318.115L383.3 318.386L384.926 321.638L389.262 325.568L394.277 326.788L390.482 321.774L390.211 320.418H387.094L384.655 318.115V318.115ZM398.749 305.511L392.921 300.362L390.889 300.091L389.398 301.31L393.735 305.918L392.921 306.867L389.127 306.324L383.435 303.885L381.944 305.24L383.842 307.544L386.823 309.035L385.874 311.068L390.075 314.049L388.72 316.759L392.108 319.063L395.496 320.554L396.716 326.517L403.899 320.147L406.473 319.47L409.048 322.045L407.422 326.246L412.572 330.853L414.333 330.447L413.249 326.11L415.553 324.077L416.095 321.096L415.96 314.32L421.652 313.642L418.941 311.339L415.553 311.068L410.81 304.969L406.202 300.633L402.679 304.021L402.001 306.053L398.749 305.511V305.511Z" fill="#2C2948" stroke="#C9C9C9" stroke-width="2" stroke-linejoin="round"/>
<path fill-rule="evenodd" clip-rule="evenodd" d="M100.878 219.592L94.9151 221.354L90.0364 220.676L84.8867 222.302L85.8353 225.284L88.8167 225.419L92.0692 228.672L96.6768 232.602L100.065 232.06L106.028 235.854L106.57 231.111L108.332 230.84L108.874 225.148L105.079 223.251L100.878 219.592V219.592Z" fill="#2C2948" stroke="#C9C9C9" stroke-width="2" stroke-linejoin="round"/>
<path fill-rule="evenodd" clip-rule="evenodd" d="M759.23 471.251L753.132 457.564L751.099 457.699L750.828 463.12L746.085 458.648L747.575 453.769L750.828 453.227L752.996 446.045L748.388 444.554L741.612 444.69L734.294 443.47L732.668 437.507L729.009 436.965L722.504 433.306L720.878 439.133L727.112 443.741L722.911 446.993L721.827 450.11L726.841 452.414L726.299 457.564L729.822 464.069L731.991 471.116L734.972 471.929L737.276 472.878L738.089 471.251L741.477 473.013L743.239 468.27L742.019 464.746L748.93 465.017L752.725 470.032L754.758 474.233L755.842 478.569L758.552 483.041L757.062 476.13L759.907 477.485L759.23 471.251V471.251Z" fill="white" stroke="#C9C9C9" stroke-width="2" stroke-linejoin="round"/>
<path fill-rule="evenodd" clip-rule="evenodd" d="M264.72 284.777L260.654 283.828L255.234 280.847L247.374 282.744L244.257 284.913L234.093 284.506L228.672 283.151L226.097 283.828L223.658 280.305L222.167 282.202L223.116 285.319L226.91 288.843L224.606 291.418L223.658 294.128L224.471 295.077L223.522 296.296L227.317 299.007L228.401 304.563L233.551 304.834L238.836 302.53L244.121 305.376L250.355 304.563L249.948 300.497L256.724 297.787L262.823 298.871L259.977 294.128L261.739 288.165L264.72 284.777Z" fill="#2C2948" stroke="#C9C9C9" stroke-width="2" stroke-linejoin="round"/>
<path fill-rule="evenodd" clip-rule="evenodd" d="M184.222 272.038L181.105 272.174L179.75 273.935L177.175 272.038L175.955 275.426L179.614 279.356L181.376 281.931L184.764 285.048L187.474 286.945L190.456 290.333L196.825 293.586L197.367 288.978L199.4 287.081L200.62 286.268L202.246 285.861L202.923 281.931L199.264 278.814L200.62 275.155H198.18L194.928 273.258L190.185 273.393L184.222 272.038V272.038Z" fill="#2C2948" stroke="#C9C9C9" stroke-width="2" stroke-linejoin="round"/>
<path fill-rule="evenodd" clip-rule="evenodd" d="M252.794 183.273L245.747 181.24L239.513 184.357L235.989 185.713L237.209 189.236L232.466 191.947L231.788 196.554L225.283 199.536H219.05L219.863 203.195L222.166 206.312L222.573 209.564L218.914 211.19L221.489 215.12L222.166 218.779L225.148 218.373L228.4 216.204L233.415 215.933L240.19 216.611L247.78 218.644L252.929 218.779L255.64 219.999L257.808 218.508L259.841 220.541L265.668 220.134L268.379 220.948L268.107 216.747L269.734 214.849L275.29 214.443L272.58 209.157L270.547 206.447L271.631 205.634L276.916 205.905L279.084 204.143L276.781 201.975L272.173 200.484L272.308 198.993L269.327 197.503L264.313 192.218L265.126 190.049L263.771 186.119L257.266 184.222L254.149 185.171L252.794 183.273V183.273Z" fill="#2C2948" stroke="#C9C9C9" stroke-width="2" stroke-linejoin="round"/>
<path fill-rule="evenodd" clip-rule="evenodd" d="M937.166 622.355L940.825 626.827L942.316 623.846L945.975 624.117L946.11 618.561L946.246 614.36L940.012 619.103L937.166 622.355V622.355Z" fill="white" stroke="#C9C9C9" stroke-width="2" stroke-linejoin="round"/>
<path fill-rule="evenodd" clip-rule="evenodd" d="M743.238 421.922L739.579 419.483L735.649 419.347L729.957 417.315L726.434 419.483L722.91 425.988L723.317 427.614L730.77 431.002L735.107 429.647L741.476 430.189L747.439 429.918L746.897 424.633L743.238 421.922Z" fill="white" stroke="#C9C9C9" stroke-width="2" stroke-linejoin="round"/>
<path fill-rule="evenodd" clip-rule="evenodd" d="M132.86 252.659L125.542 250.084L124.187 251.981H118.495L116.734 253.336L113.617 252.523L113.888 254.692L109.145 259.435V263.229L112.397 262.01L114.836 265.669L117.818 267.43L121.07 267.024L124.729 264.178L125.949 265.533L129.201 265.262L130.421 261.874L135.571 262.958L138.417 261.468L138.823 258.08L135.3 257.809L132.183 256.318L133.131 254.15L132.86 252.659V252.659Z" fill="#2C2948" stroke="#C9C9C9" stroke-width="2" stroke-linejoin="round"/>
<path fill-rule="evenodd" clip-rule="evenodd" d="M895.697 500.252L896.51 495.374L899.22 491.579L897.052 488.191L892.715 488.055L884.855 490.495L881.874 494.289L883.229 501.743L889.869 504.453L895.697 500.252V500.252ZM913.585 233.957L905.319 225.69L899.356 220.676L894.206 217.017L883.771 208.751L875.775 205.634L864.256 203.194L855.854 203.465L848.942 204.956L846.639 209.022L851.653 211.054L855.041 215.527L853.415 218.237L853.55 227.046L856.125 230.705L850.162 235.99L840.269 232.873L841.082 239.107L841.489 247.509L845.148 251.033L848.401 249.948L855.718 251.304L859.106 248.187L866.018 250.897L875.775 256.724L876.724 259.706L870.897 258.757L861.681 259.841L858.429 262.281L856.532 267.837L847.994 271.089L843.793 275.562L835.797 273.8L831.461 273.122L830.919 278.543L834.849 281.66L837.423 284.506L834.035 287.216L831.461 291.688L824.82 294.67L814.656 294.941L804.899 297.922L798.936 302.394L794.599 299.684L786.197 299.819L773.594 294.67L766.14 293.45L757.467 294.534L742.289 292.772L734.835 292.908L728.466 288.029L721.826 280.305L717.218 279.356L706.512 274.206L696.755 272.987L688.081 271.631L684.016 267.972L682.254 258.08L674.394 251.304L663.417 248.187L655.692 243.715L651.22 237.752L648.916 238.429L646.477 244.121L641.327 244.934L644.715 253.336L642.547 257.131L628.046 254.421L629.402 269.463L626.691 271.36L614.494 274.613L626.285 289.113L622.355 291.282L624.658 296.025L624.387 297.922L615.172 302.53L613.817 305.782L605.144 306.866L604.33 312.287L596.606 311.068L592.269 312.694L586.849 316.759L588.339 318.792L586.984 320.825L591.05 328.821L593.218 328.007L597.961 329.905L598.774 333.293L601.214 338.307L603.111 340.882L609.48 344.947L613.41 351.723L626.149 355.247L636.449 365.411L637.533 372.458L641.598 376.93L642.411 381.402L636.855 380.182L641.192 389.669L649.594 395.089L661.113 401.052L663.688 399.019L670.057 401.73L678.73 407.286L683.067 408.506L686.455 412.707L692.554 414.333L699.329 418.128L708.003 420.16L716.811 420.974L720.877 419.076L722.91 425.988L726.433 419.483L729.957 417.315L735.649 419.347L739.579 419.483L743.238 421.922L748.929 420.838L754.215 414.333L761.397 408.912L768.038 410.945L772.374 407.422L777.117 412.707L775.491 416.366L783.758 417.586L787.823 417.043L791.482 422.058L795.141 424.09L796.903 430.731L797.987 437.913L792.431 445.096L793.38 455.26L800.969 453.905L804.086 461.765L809.1 463.527L808.016 470.574L814.114 473.826L817.502 475.452L822.652 473.013L823.465 476.536L824.414 478.569L828.344 478.705L825.769 468.947L829.428 467.592L833.087 465.559H838.914L846.097 464.611L851.653 460.003L855.718 463.256L862.766 464.746L862.494 469.76L866.56 473.284L874.556 475.452L877.808 474.097L888.243 476.807L887.023 480.195L890.005 486.429L894.07 485.887L895.155 476.807L902.744 475.588L912.501 471.251L915.889 466.915L919.006 469.76L922.8 465.83L931.067 464.882L940.011 457.699L948.549 449.704L953.021 439.404L956.138 428.021L958.984 418.67L962.779 417.992L962.643 411.081L961.559 404.169L956.409 401.459L953.021 396.851L956.816 394.547L954.647 388.178L947.329 381.537L940.011 373.677L933.778 365.14L924.156 360.397L925.375 354.163L930.525 349.826L931.88 345.083L940.96 342.643L937.707 338.036L933.1 337.765L925.24 334.377L919.955 340.611L913.314 338.036L911.281 334.106L904.912 332.751L898.543 326.788L900.169 322.722L906.945 322.316L908.571 316.759L913.45 310.797L918.057 307.815L924.02 312.287L921.445 317.979L924.562 321.367L922.665 325.433L929.17 322.993L932.422 319.063L940.96 316.488L943.806 311.068L948.956 306.46L950.311 300.497L955.189 303.207L961.423 303.478L957.764 299.006L966.302 295.483L966.166 290.74L973.62 295.618L971.045 291.417L974.433 291.282L969.283 281.389L962.914 274.206L966.844 271.225L976.059 272.716L975.246 264.584L971.452 255.369L971.994 252.252L970.232 244.663L960.881 247.103L957.358 250.49H947.194L939.063 242.63L927.002 236.532L913.585 233.957V233.957Z" fill="white" stroke="#C9C9C9" stroke-width="2" stroke-linejoin="round"/>
<path fill-rule="evenodd" clip-rule="evenodd" d="M166.875 222.709L164.029 223.522L162.132 222.574L160.641 224.2L156.034 225.826L153.73 227.859L149.122 229.621L150.477 232.196L151.426 235.719L154.949 237.752L158.879 241.275L164.029 243.986L167.553 240.598L169.856 239.92L175.277 242.495L178.394 242.088L181.511 243.715L182.324 241.817L185.306 241.953L187.474 241.14L187.609 240.327L188.829 239.92L189.1 238.023L190.591 237.616L191.404 236.126H193.437L189.913 231.925L185.035 231.518L184.086 228.808L179.478 227.994L178.665 230.027L175.006 228.401L175.142 226.097L170.128 225.284L166.875 222.709V222.709Z" fill="#2C2948" stroke="#C9C9C9" stroke-width="2" stroke-linejoin="round"/>
<path fill-rule="evenodd" clip-rule="evenodd" d="M159.016 200.755L155.763 198.18L148.31 194.928L144.922 197.232L138.552 198.722L138.417 195.877L131.776 193.979L131.505 190.862L127.44 192.082L122.561 190.998L123.103 195.605L124.729 198.587L120.664 202.652L119.308 200.891L114.023 201.297L112.804 203.059L114.159 205.769L112.804 213.358L111.313 216.475H107.383L108.873 225.149L108.331 230.84L109.687 232.738L109.416 236.397L112.668 238.565L122.29 240.191L119.173 245.883L118.495 251.981H124.187L125.542 250.084L132.86 252.659L134.893 252.252L138.417 254.556L139.23 252.388L145.193 252.795L149.8 251.168L153.053 251.439L155.357 253.201L155.899 251.71L154.544 246.29L156.847 245.205L158.88 241.275L154.95 237.752L151.427 235.719L150.478 232.196L149.123 229.621L153.73 227.859L156.034 225.826L160.642 224.2L162.133 222.574L164.03 223.522L166.876 222.709L163.759 217.424L163.894 214.578L161.997 210.106L159.287 207.125L160.913 204.956L159.016 200.755V200.755Z" fill="#2C2948" stroke="#C9C9C9" stroke-width="2" stroke-linejoin="round"/>
<path fill-rule="evenodd" clip-rule="evenodd" d="M148.581 185.712L146.277 181.647L137.197 184.357L138.417 187.745L145.328 192.353L148.581 185.712ZM136.926 178.801L133.402 177.581L132.454 175.413L134.216 172.703L134.08 168.637L129.201 170.805L127.168 173.109L121.748 173.651L120.122 175.955L119.173 178.123L119.715 186.39L122.561 190.998L127.439 192.082L131.505 190.862L129.472 186.797L133.673 180.969L135.571 181.918L136.926 178.801V178.801Z" fill="#2C2948" stroke="#C9C9C9" stroke-width="2" stroke-linejoin="round"/>
<path fill-rule="evenodd" clip-rule="evenodd" d="M226.232 153.595L218.779 154.814L211.461 156.983L212.68 161.59L217.153 164.436L219.185 163.352L219.321 168.095L224.335 166.74L227.181 167.689L233.144 170.67H238.294L240.462 168.095L237.074 160.642L240.598 156.034L239.378 154.679L233.144 154.95L226.232 153.595V153.595Z" fill="#2C2948" stroke="#C9C9C9" stroke-width="2" stroke-linejoin="round"/>
<path fill-rule="evenodd" clip-rule="evenodd" d="M226.504 81.634L227.588 76.4843L219.863 73.6384L212.003 76.0778L210.513 81.363L205.905 84.6155L199.536 82.8537L192.353 83.2603L185.442 79.3302L182.596 81.2275L190.591 84.8865L200.349 89.9007L202.653 101.284L205.227 104.266L213.901 107.789L215.12 110.906L211.597 112.532L199.807 120.799L195.335 125.678L193.302 130.15L197.232 137.197L197.096 144.921L203.466 147.496L207.667 151.697L217.289 150.071L227.452 147.225L238.294 146.548L249 136.519L253.472 132.047L254.692 128.117L244.799 122.832L246.019 117.818L239.378 112.261L241.682 105.756L233.009 97.2187L236.803 91.6625L227.046 86.6483L226.504 81.634V81.634Z" fill="#2C2948" stroke="#C9C9C9" stroke-width="2" stroke-linejoin="round"/>
<path fill-rule="evenodd" clip-rule="evenodd" d="M32.1691 194.25L25.5287 189.236L20.2435 189.642L21.3276 193.979L19.8369 198.316L23.7669 198.18L28.5101 199.942L32.1691 194.25V194.25ZM49.7866 161.319L42.3331 161.996L37.4544 161.454L32.4402 167.959L29.8653 176.226L32.8467 180.292L32.9822 188.152L36.5057 184.357L38.403 186.525L36.0992 190.184L37.4544 192.353L45.1789 193.843H45.3145L49.5155 198.993L48.4314 203.736L38.8096 202.923L37.4544 208.344L40.9779 212.816L34.0664 215.391L35.8282 218.643L45.9921 219.999L40.1648 221.76L30.2718 230.569L33.6598 232.195L38.403 229.078L44.5013 230.027L48.9735 226.097L51.9549 227.723L63.203 225.419L72.0118 225.555L77.8391 221.083L75.2642 216.882L78.5167 214.442L79.1943 209.157L71.3342 207.531L69.5724 204.414L65.6424 195.063L61.3057 193.708L55.7495 184.086L55.2074 183.273L48.7025 182.731L54.3943 175.548L56.156 168.908H49.3801L43.0106 169.992L49.7866 161.319V161.319Z" fill="#2C2948" stroke="#C9C9C9" stroke-width="2" stroke-linejoin="round"/>
<path fill-rule="evenodd" clip-rule="evenodd" d="M370.967 292.772L360.803 288.842L350.368 287.487L344.269 285.996L343.592 286.945L346.573 289.52L350.639 290.468L355.246 293.585L358.092 299.277L357.686 302.936L365.004 302.53L372.593 306.595L381.944 305.24L383.434 303.885L389.126 306.324L392.921 306.866L393.734 305.918L389.397 301.31L390.888 300.09L386.145 298.193L383.299 294.805L376.387 293.043L372.457 294.398L370.967 292.772Z" fill="#2C2948" stroke="#C9C9C9" stroke-width="2" stroke-linejoin="round"/>
<path fill-rule="evenodd" clip-rule="evenodd" d="M238.022 353.35L236.938 357.144L245.882 358.771V360.261L256.182 359.448L256.86 356.873L253.065 357.957V356.467L247.78 355.789L242.223 356.331L238.022 353.35ZM253.607 302.666L249.948 300.497L250.355 304.563L244.121 305.376L238.835 302.53L233.55 304.834L228.401 304.563L227.045 304.834L226.097 306.325L222.302 306.189L219.727 307.951L215.255 308.764V310.932L213.087 312.152L212.951 314.998L210.105 319.063L210.783 321.638L214.713 326.517L217.83 330.583L219.592 336.41L222.709 343.321L228.942 347.251L233.55 347.116L230.298 339.391L234.77 338.443L232.195 333.971L238.971 336.274L238.429 331.26L234.77 328.821L230.433 324.755L232.873 322.858L229.078 318.792L226.91 313.643L228.129 311.881L232.195 316.218H236.125L239.513 314.862L234.228 309.984L242.494 307.815L246.154 308.628L250.49 308.9L251.981 307.951L253.607 302.666V302.666Z" fill="#2C2948" stroke="#C9C9C9" stroke-width="2" stroke-linejoin="round"/>
<path fill-rule="evenodd" clip-rule="evenodd" d="M188.017 265.94L182.596 262.416L180.428 261.332L175.142 263.636L174.736 267.024L172.432 267.837L172.703 270.141L169.993 270.005L167.553 268.65L166.469 270.005L161.726 269.734L161.455 269.87V272.851L163.759 275.562L165.521 272.038L169.993 273.393L170.399 276.104L173.787 279.627L172.432 280.305L178.666 286.403L185.171 288.843L189.372 291.824L196.148 294.941L196.826 293.586L190.456 290.333L187.475 286.945L184.764 285.048L181.376 281.931L179.615 279.356L175.956 275.426L177.175 272.038L179.75 273.936L181.105 272.174L184.222 272.038L190.185 273.393L194.928 273.258L198.181 275.155L200.484 272.038L198.181 269.599L196.148 266.346L193.709 267.566L188.017 265.94V265.94Z" fill="#2C2948" stroke="#C9C9C9" stroke-width="2" stroke-linejoin="round"/>
<path fill-rule="evenodd" clip-rule="evenodd" d="M207.125 243.444L204.957 243.986L203.602 246.018L200.621 246.967L199.807 246.425L196.69 247.78L194.116 248.051L193.709 249.677L188.153 250.762L185.578 249.813L182.054 247.645L181.783 251.168H177.989L179.479 252.93L177.718 258.351L178.802 258.486L180.428 261.332L182.596 262.416L188.017 265.94L193.709 267.566L196.148 266.346L201.162 264.178L205.499 264.449L210.649 262.958L214.172 257.131L216.747 251.439L220.677 249.677L219.864 247.509L215.934 245.205L214.579 246.018L207.125 243.444V243.444Z" fill="#2C2948" stroke="#C9C9C9" stroke-width="2" stroke-linejoin="round"/>
<path fill-rule="evenodd" clip-rule="evenodd" d="M983.379 749.607L984.057 747.304L981.617 744.729L977.823 742.018L970.64 743.78L980.126 749.743L983.379 749.607V749.607ZM1011.7 748.794L1017.12 742.289L1017.26 739.715L1016.58 737.953L1008.86 741.476L1005.06 746.762L1004.11 749.607L1004.93 750.692L1011.7 748.794V748.794ZM963.458 731.177L961.289 734.158L957.088 734.294L954.107 739.172L958.172 739.308L963.458 738.088L972.402 736.462L970.776 732.668L966.032 733.481L963.458 731.177V731.177ZM1001.54 731.177L994.491 734.294L989.342 734.971L984.734 732.397L978.636 734.158L978.365 737.275L988.393 738.359L1000.05 735.92L1001.54 731.177V731.177ZM893.801 719.793L892.852 716.676L889.735 715.999L883.772 712.746L874.557 712.204L869.001 720.471L875.912 721.013L876.996 724.807L890.548 728.331L893.801 727.247L899.357 728.06L907.895 731.312L914.942 732.939L922.802 733.616L929.713 733.345L937.709 736.733L946.653 733.481L937.709 728.331L926.461 726.84L924.022 721.284L910.063 717.083L908.301 720.606L893.801 719.793V719.793ZM1092.47 714.915L1092.74 710.849L1091.12 708.274L1089.35 711.256L1087.73 714.237L1088.14 720.742L1092.47 714.915V714.915ZM1036.91 691.199L1035.01 688.353L1027.29 688.759L1028.64 692.418L1033.93 694.045L1036.91 691.199ZM1061.44 687.946L1053.17 685.507L1043.82 685.914L1041.79 690.657L1047.07 690.928L1051.41 690.386L1057.64 691.063L1064.01 694.587L1061.44 687.946V687.946ZM1089.9 671.277L1088.81 668.025L1076.62 664.502L1072.69 667.347L1062.39 669.38L1065.5 673.717L1072.28 675.343L1075.13 680.357L1086.37 680.493L1086.92 682.661L1081.49 682.526L1073.09 685.642L1078.78 689.844L1078.65 693.638L1080.28 696.755L1083.12 696.077L1085.56 691.876L1096.67 699.872L1102.91 700.55L1117.27 707.868L1120.39 715.05L1121.74 724.401L1116.73 726.84L1112.94 733.887L1122.56 733.616L1124.73 731.177L1132.18 732.939L1138.41 739.986L1140.45 711.798L1141.8 683.745L1133.67 682.119L1128.11 679.002L1121.74 676.021H1114.97L1106.02 681.17L1099.38 690.386L1091.66 685.236L1089.9 671.277V671.277ZM1022.14 649.052L1020.78 647.155L1013.33 653.389L1004.52 653.795L994.898 652.576L988.935 650.001L982.566 656.506L980.94 660.029L977.009 673.039L975.79 679.815L972.537 685.507L974.706 691.334L977.823 691.47L978.636 699.736L976.061 707.732L979.178 710.307L984.057 708.952L984.463 696.62L984.192 686.591L989.342 684.016L988.393 692.418L993.678 697.433L992.594 700.821L994.356 703.124L1001.94 699.872L997.879 706.919L1000.73 709.9L1004.93 707.326L1005.33 701.769L998.964 691.741L1000.45 688.759L993.543 677.782L1000.32 674.394L1003.84 669.38L1007.09 670.6L1007.77 666.67L993.543 669.516L989.342 673.446L982.566 665.857L983.785 659.352L990.426 657.997L1003.03 657.59L1010.35 659.352L1016.17 657.59L1022.14 649.052V649.052ZM1048.43 651.627L1047.62 648.104L1043.14 647.291L1042.47 642.547L1040.03 645.664L1038.67 652.576L1040.97 663.688L1043.96 669.109L1046.12 668.025L1043.01 663.553L1044.23 658.268L1048.16 659.081L1048.43 651.627V651.627ZM965.897 645.529L967.117 641.599L961.289 633.468L965.355 625.608L958.579 624.252H949.906L947.602 634.01L944.891 636.991L941.233 649.052L935.134 650.814L927.816 648.375L924.157 649.188L919.82 653.524L914.942 652.982L910.063 654.609L904.778 649.865L903.423 644.038L898.95 649.73L898.137 657.726L899.222 665.315L902.745 672.633L906.54 675.072L907.488 686.591L913.722 687.675L918.601 687.133L921.311 691.334L930.391 688.217L934.185 690.928L939.606 691.47L942.317 696.755L951.125 692.825L952.21 695.942L955.598 682.797L956.004 674.123L963.458 668.296L963.187 660.436L965.626 654.609L974.706 653.524L965.897 645.529V645.529ZM872.795 711.798L873.744 698.517L876.048 687.675L872.524 682.254L866.968 681.577L864.393 676.698L863.173 670.735L860.463 670.464L856.126 667.483L859.243 660.436L853.416 656.506L848.944 649.323L842.439 643.361L834.714 643.225L827.261 634.01L822.924 630.351L816.826 624.523L809.779 616.121L797.853 614.495L792.975 614.088L793.788 618.425L802.054 627.911L808.017 632.79L812.218 640.244L819.13 645.664L822.111 652.305L824.415 659.758L831.055 666.941L836.612 679.002L840.271 685.507L845.827 692.554L848.808 697.704L858.295 704.751L864.393 711.933L872.795 711.798V711.798Z" fill="white" stroke="#C9C9C9" stroke-width="2" stroke-linejoin="round"/>
<path fill-rule="evenodd" clip-rule="evenodd" d="M661.114 401.052L649.595 395.089L641.193 389.669L636.856 380.182L642.412 381.402L641.599 376.93L637.534 372.458L636.45 365.411L626.15 355.247L621.136 362.565L613.411 363.92L601.892 361.752L599.317 365.546L603.654 373.135L607.584 378.963L614.36 383.164L609.346 388.178L610.701 394.276L605.416 402.814L602.57 411.623L596.471 420.703L587.798 420.025L581.158 428.969L586.578 432.899L588.34 439.54L593.083 443.876L595.523 451.33H579.26L574.924 457.022L584.546 464.34L587.121 467.728L583.868 470.845L594.71 481.28L600.13 482.364L610.43 477.214L612.734 485.21L613.818 495.78L617.206 506.757L622.085 523.426L629.945 535.352L631.706 540.637L634.417 551.479L639.024 559.745L642.006 563.811L645.394 572.484L649.595 584.545L657.048 592.676L660.03 590.237L662.334 584.274L669.11 581.835L666.67 578.989L669.652 572.484L673.582 572.077L672.633 557.441L675.208 549.175L674.259 541.992L671.684 530.88L673.311 524.239L676.699 523.833L683.204 520.716L686.727 518.547L686.32 514.617L693.096 508.926L698.111 503.505L705.293 493.341L715.322 487.649L718.574 482.499L717.354 475.994L726.299 474.233L731.313 474.368L731.99 471.116L729.822 464.069L726.299 457.564L726.841 452.414L721.827 450.11L722.911 446.993L727.112 443.741L720.878 439.133L722.504 433.306L729.009 436.965L732.668 437.507L734.294 443.47L741.612 444.689L748.388 444.554L752.996 446.045L750.828 453.227L747.575 453.769L746.085 458.648L750.828 463.12L751.099 457.699L753.131 457.564L759.23 471.251L762.482 469.218L761.263 465.559L762.482 462.714L761.263 453.769L767.496 455.666L769.529 448.62L769.123 444.418L771.969 437.1L770.749 432.222L779.016 426.259L784.572 427.75L782.81 422.464L784.978 420.838L783.759 417.586L775.492 416.366L777.118 412.707L772.375 407.422L768.039 410.945L761.398 408.912L754.216 414.333L748.93 420.838L743.238 421.922L746.898 424.633L747.44 429.918L741.477 430.189L735.107 429.647L730.771 431.002L723.317 427.614L722.911 425.988L720.878 419.076L716.812 420.974L716.948 424.633L718.981 430.189L718.845 433.577L712.611 433.712L703.396 431.68L697.569 430.867L692.419 426.53L682.119 425.31L671.684 420.567L663.824 416.366L656.1 412.978L657.32 404.982L661.114 401.052V401.052Z" fill="white" stroke="#C9C9C9" stroke-width="2" stroke-linejoin="round"/>
<path fill-rule="evenodd" clip-rule="evenodd" d="M28.5102 199.942L23.7671 198.18L19.8371 198.316L21.3277 193.979L20.2436 189.643L15.2294 193.437L6.14958 199.807L8.99553 208.073L3.30371 216.746L12.3835 217.966L24.1736 213.087L29.4589 205.769L28.5102 199.942Z" fill="#2C2948" stroke="#C9C9C9" stroke-width="2" stroke-linejoin="round"/>
<path fill-rule="evenodd" clip-rule="evenodd" d="M178.259 331.26L172.838 331.937L165.791 332.886L157.389 332.073L156.576 336.68L166.74 341.153L170.399 342.101L176.091 345.354L177.311 340.882L176.091 338.171L178.259 331.26V331.26ZM132.589 305.647L129.201 308.221L125.407 307.815L127.168 312.694L127.711 322.993L130.556 325.297L133.267 322.451L136.519 322.993L137.061 311.609L132.589 305.647V305.647ZM151.968 259.164L150.207 256.182L143.702 257.673L143.024 259.299L138.823 258.079L138.417 261.467L135.571 262.958L130.421 261.874L129.201 265.262L125.949 265.533L124.729 264.178L121.07 267.024L117.818 267.43L114.836 265.668L114.565 267.972L116.734 271.225L114.43 273.664L116.462 280.169L120.122 281.253L119.444 284.912L122.29 284.235L126.084 280.44L129.201 279.22L134.893 282.066L138.417 283.015L140.991 291.146L145.87 296.025L152.511 301.445L158.202 305.24L163.488 305.782L166.604 309.17L171.212 310.796L173.516 314.455L176.497 315.539L178.937 319.876L182.054 324.89L180.563 326.652L179.479 331.395L179.614 334.106L182.46 333.428L185.848 325.839L188.694 325.297L189.236 320.825L183.951 317.708L186.526 312.152L192.624 313.507L196.825 317.572L197.91 314.455L197.096 312.829L190.727 308.492L185.442 305.918L178.937 302.801L180.834 301.174L178.937 299.277L173.516 299.413L165.385 292.637L161.455 285.725L154.814 281.524L152.239 277.323L152.917 274.884L152.375 270.818L157.66 267.837L163.216 269.056L161.319 265.397L161.726 261.332L151.968 259.164V259.164Z" fill="#2C2948" stroke="#C9C9C9" stroke-width="2" stroke-linejoin="round"/>
<path fill-rule="evenodd" clip-rule="evenodd" d="M1038.4 366.902L1032.3 365.14L1030.81 368.799L1026.34 367.715L1024.58 372.864L1026.2 376.93L1031.89 379.369L1031.76 374.355L1034.6 372.322L1038.81 375.168L1040.57 369.883L1038.4 366.902V366.902ZM1071.47 340.746L1066.59 331.667L1068.35 322.993L1064.55 315.946L1053.58 304.156L1047.07 305.783L1047.34 311.068L1054.25 320.69L1055.61 331.396L1053.31 334.784L1047.21 343.592L1040.43 339.391V354.976L1031.89 353.214L1018.88 355.789L1016.31 361.752L1011.02 366.224L1009.53 371.645L1003.71 374.355L1009.13 380.183L1014.68 382.757L1015.9 390.482L1020.65 393.87L1024.03 390.211L1022.95 375.575L1013.06 369.205L1021.32 369.07L1028.1 365.004L1039.75 363.107L1043.01 369.612L1049.24 372.864L1055.2 362.972L1067.54 362.43L1074.85 358.364L1075.67 352.13L1072.28 347.793L1071.47 340.746V340.746ZM1055.47 280.847L1048.29 278.001L1034.2 269.328L1036.77 275.833L1042.6 287.352L1035.55 287.894L1036.37 294.263L1042.6 302.53H1050.32L1048.16 293.315L1062.79 299.007L1063.33 290.74L1072.01 288.436L1063.88 279.085L1061.57 282.609L1055.47 280.847Z" fill="#2C2948" stroke="#C9C9C9" stroke-width="2" stroke-linejoin="round"/>
<path fill-rule="evenodd" clip-rule="evenodd" d="M518.412 189.236L506.215 187.474L502.014 190.862L487.378 193.844L485.074 195.877L462.307 198.722L460.41 201.568L467.186 207.125L461.9 209.293L463.933 211.597L459.054 215.527L471.793 221.219L471.522 225.284L462.171 224.878L461.087 227.317L451.194 222.98L440.895 223.251L435.068 226.639L426.123 223.387L409.997 217.56L399.833 217.831L388.855 226.775L389.804 233.009L381.673 228.13L378.827 237.345L381.131 238.972L378.827 245.341L386.01 251.168L390.888 250.897L396.58 256.454L396.851 260.79L400.646 262.145L406.609 260.384L413.385 256.725L419.754 258.757L426.394 258.351L428.969 263.636L429.782 271.767L423.548 270.548L418.128 271.903L419.347 278.001L412.571 277.188L413.385 279.898L417.721 282.067L422.735 289.52L431.408 292.366L433.441 295.212L432.493 298.736L433.441 300.768L435.881 298.058L443.334 296.296L448.484 298.6L455.124 305.24L458.512 304.834L450.11 273.936L466.237 269.057L467.728 269.734L480.06 275.833L486.565 278.95L495.374 286.403L503.098 285.184L514.753 284.506L524.917 290.604L526.949 299.007L530.337 299.142L533.861 305.918L542.805 306.189L545.922 310.255H548.497L549.717 304.156L557.035 298.329L560.423 296.703L560.829 293.044L565.03 291.96L577.363 294.806L576.685 289.927L580.073 288.165L591.05 291.689L593.218 290.74L604.873 291.011L615.443 291.824L619.916 294.806L624.659 296.025L622.355 291.282L626.285 289.114L614.495 274.613L626.691 271.361L629.402 269.463L628.047 254.421L642.547 257.131L644.716 253.337L641.328 244.934L646.477 244.121L648.917 238.43L643.089 233.28L634.958 234.5L630.486 230.976L625.201 229.35L619.645 224.471L615.308 222.98L606.906 225.149L595.658 220.27L594.167 224.742L569.638 203.737L558.39 197.367L559.474 194.792L547.142 202.517L541.179 203.059L539.553 198.587L530.066 195.741L524.239 197.774L518.412 189.236V189.236Z" fill="white" stroke="#C9C9C9" stroke-width="2" stroke-linejoin="round"/>
<path fill-rule="evenodd" clip-rule="evenodd" d="M624.659 296.025L619.916 294.805L615.444 291.824L604.873 291.011L593.219 290.74L591.05 291.688L580.073 288.165L576.685 289.927L577.363 294.805L565.031 291.959L560.829 293.043L560.423 296.703L562.862 297.516L558.661 303.072L564.895 306.189L569.232 304.021L578.854 308.493L571.806 314.591L566.25 313.778L564.353 316.488L556.357 314.998L557.171 320.012L564.489 319.334L574.11 322.045L586.985 320.825L588.34 318.792L586.849 316.759L592.27 312.694L596.607 311.068L604.331 312.287L605.144 306.866L613.817 305.782L615.173 302.53L624.388 297.922L624.659 296.025V296.025Z" fill="white" stroke="#C9C9C9" stroke-width="2" stroke-linejoin="round"/>
<path fill-rule="evenodd" clip-rule="evenodd" d="M878.893 538.875L871.846 535.759L869.135 541.586L862.495 538.333L855.312 536.978L845.691 538.74L841.625 545.787L844.471 556.222L849.079 565.166L852.602 569.638L858.971 570.858L865.341 567.47L873.201 566.792L869.406 561.643L881.467 555.002L881.332 544.567L878.893 538.875V538.875Z" fill="white" stroke="#C9C9C9" stroke-width="2" stroke-linejoin="round"/>
<path fill-rule="evenodd" clip-rule="evenodd" d="M963.592 335.461L971.994 342.915L967.386 344.405L974.433 353.621L975.924 360.126L978.77 364.869L984.868 364.191L989.205 360.532L994.897 358.906L995.574 354.027L990.967 343.863L986.494 338.172L975.382 327.872L975.517 330.04L972.672 330.582L967.928 330.989L966.98 334.919L963.727 334.648L963.592 335.461V335.461Z" fill="#2C2948" stroke="#C9C9C9" stroke-width="2" stroke-linejoin="round"/>
<path fill-rule="evenodd" clip-rule="evenodd" d="M878.893 538.875L879.164 530.202L876.454 524.103L869.949 518.141L864.121 510.552L856.397 500.388L846.504 495.238L848.266 492.121L852.738 489.817L848.672 482.364L839.457 482.228L834.849 474.503L829.429 467.592L825.769 468.947L828.344 478.705L824.414 478.569L823.466 476.536L817.909 482.093L816.825 485.345L820.349 487.92L821.568 493.07L826.718 493.476L826.176 502.556L827.531 510.281L834.714 505.131L837.153 506.757L841.49 506.486L842.574 503.505L848.401 504.047L855.042 511.094L856.803 519.631L863.85 527.085L864.528 534.403L862.495 538.333L869.136 541.585L871.846 535.758L878.893 538.875V538.875Z" fill="white" stroke="#C9C9C9" stroke-width="2" stroke-linejoin="round"/>
<path fill-rule="evenodd" clip-rule="evenodd" d="M685.643 607.854L688.76 605.415L689.573 596.471L685.508 587.527L681.577 581.428L676.021 576.685L673.446 590.644L675.344 602.976L679.138 609.887L685.643 607.854V607.854Z" fill="white" stroke="#C9C9C9" stroke-width="2" stroke-linejoin="round"/>
<path fill-rule="evenodd" clip-rule="evenodd" d="M235.991 185.712L229.215 181.782L225.827 181.24L224.607 179.479L218.644 180.292L207.938 179.75L201.162 182.324L203.466 189.1L210.242 190.591L213.223 191.811L212.952 194.115L213.765 196.147L217.153 196.96L219.051 199.535H225.285L231.79 196.554L232.467 191.946L237.21 189.236L235.991 185.712V185.712Z" fill="#2C2948" stroke="#C9C9C9" stroke-width="2" stroke-linejoin="round"/>
<path fill-rule="evenodd" clip-rule="evenodd" d="M109.415 236.397L109.686 232.738L108.331 230.841L106.569 231.112L106.027 235.855L107.518 236.532L109.415 236.397V236.397Z" fill="#2C2948" stroke="#C9C9C9" stroke-width="2" stroke-linejoin="round"/>
<path fill-rule="evenodd" clip-rule="evenodd" d="M238.294 170.67H233.145L227.182 167.688L224.336 166.74L219.322 168.095L219.051 174.329L214.172 174.464L208.209 168.366L202.788 171.212L200.484 176.226L201.162 182.324L207.938 179.749L218.644 180.291L224.607 179.478L225.827 181.24L229.215 181.782L235.99 185.712L239.514 184.357L245.748 181.24L242.902 176.361L241.547 172.567L238.294 170.67Z" fill="#2C2948" stroke="#C9C9C9" stroke-width="2" stroke-linejoin="round"/>
<path fill-rule="evenodd" clip-rule="evenodd" d="M260.519 269.87L262.145 268.921L262.823 266.075L264.313 263.365L263.636 261.874L264.991 261.197L265.804 262.416L269.87 262.687L271.496 262.01L270.141 261.197L270.412 259.841L267.701 257.809L266.211 254.285L263.636 252.794V249.949L260.248 247.78L257.537 247.374L252.252 244.799L247.915 245.612L246.425 246.832L248.593 247.645L251.032 250.22L253.607 253.743L258.215 258.757L259.028 262.416L258.757 266.075L260.519 269.87V269.87Z" stroke="#C9C9C9" stroke-width="2" stroke-linejoin="round"/>
<path fill-rule="evenodd" clip-rule="evenodd" d="M227.318 299.006L223.523 296.296L220.271 296.431L217.967 296.973L216.476 297.245L212.546 298.6L212.411 300.226H211.462L210.92 303.072L212.14 306.595L215.256 308.764L219.729 307.951L222.304 306.189L226.098 306.324L227.047 304.834L228.402 304.563L227.318 299.006Z" fill="#2C2948" stroke="#C9C9C9" stroke-width="2" stroke-linejoin="round"/>
<path fill-rule="evenodd" clip-rule="evenodd" d="M823.466 476.537L822.653 473.013L817.503 475.452L814.115 473.826L808.017 470.574L809.101 463.527L804.087 461.765L800.97 453.905L793.381 455.26L792.432 445.096L797.988 437.914L796.904 430.731L795.142 424.091L791.483 422.058L787.824 417.044L783.759 417.586L784.978 420.838L782.81 422.464L784.572 427.75L779.016 426.259L770.749 432.222L771.969 437.101L769.123 444.419L769.529 448.62L767.496 455.667L761.263 453.769L762.482 462.714L761.263 465.56L762.482 469.219L759.23 471.251L759.907 477.485L757.062 476.13L758.552 483.042L764.786 490.088L769.394 491.308L768.852 494.29L776.17 504.318L778.745 512.314L777.525 523.02L782.404 525.052L786.74 525.866L794.6 519.632L798.937 515.431L803.138 522.478L805.848 533.455L809.372 543.754L812.895 548.226L813.166 557.577L816.148 562.727L814.386 569.232L815.606 575.737L818.587 566.792L822.111 558.797L818.316 550.937L818.045 546.871L816.69 542.128L810.998 535.216L808.694 530.88L810.998 529.389L812.895 521.8L808.965 516.108L803.409 509.874L798.666 502.285L801.647 500.795L803.68 491.444L808.965 491.037L812.76 487.243L816.825 485.345L817.91 482.093L823.466 476.537V476.537Z" fill="white" stroke="#C9C9C9" stroke-width="2" stroke-linejoin="round"/>
<path fill-rule="evenodd" clip-rule="evenodd" d="M208.344 292.23L208.886 291.417L206.176 289.791L203.736 288.842L202.652 287.758L200.62 286.268L199.4 287.081L197.367 288.978L196.825 293.586L196.147 294.941L199.264 296.567L201.433 299.413L202.923 299.955L202.246 297.38L204.956 293.179L205.498 294.805L207.26 294.128L208.344 292.23V292.23Z" fill="#2C2948" stroke="#C9C9C9" stroke-width="2" stroke-linejoin="round"/>
<path fill-rule="evenodd" clip-rule="evenodd" d="M741.883 227.588L736.869 221.354L727.924 219.321L721.42 218.237L712.069 214.849L710.307 223.522L715.728 228.401L712.475 234.228L701.769 232.06L694.993 231.789L688.624 227.859L681.713 227.723L674.53 225.148L666.534 229.078L657.59 236.396L651.221 237.752L655.693 243.714L663.417 248.187L674.394 251.304L682.254 258.079L684.016 267.972L688.082 271.631L696.755 272.987L706.512 274.206L717.218 279.356L721.826 280.305L728.467 288.029L734.836 292.908L742.289 292.772L757.468 294.534L766.141 293.45L773.594 294.67L786.198 299.819L794.6 299.684L798.937 302.394L804.899 297.922L814.657 294.941L824.821 294.67L831.461 291.688L834.036 287.216L837.424 284.506L834.849 281.66L830.919 278.543L831.461 273.122L835.798 273.8L843.793 275.561L847.994 271.089L856.532 267.837L858.429 262.281L861.682 259.841L870.897 258.757L876.724 259.706L875.776 256.724L866.018 250.897L859.107 248.187L855.719 251.304L848.401 249.948L845.149 251.032L841.489 247.509L841.083 239.107L840.27 232.873L832.816 233.551L827.531 230.705L823.059 229.756L816.96 235.719L809.1 237.074L804.222 239.242L795.142 237.887H789.044L782.403 233.686L773.594 229.62L766.276 228.536L758.552 229.62L753.266 231.111L741.883 227.588V227.588Z" fill="white" stroke="#C9C9C9" stroke-width="2" stroke-linejoin="round"/>
<path fill-rule="evenodd" clip-rule="evenodd" d="M836.611 607.855L830.241 604.06L829.021 605.551L830.919 609.21L830.377 615.579L833.223 620.187L834.578 627.369L839.185 633.197L840.27 637.533L849.349 644.309L856.667 650.814L862.088 650.137L862.224 647.291L859.107 639.702L856.261 637.262L855.583 632.112L854.77 629.267L855.448 625.336L854.77 619.509L851.247 613.682L846.503 608.532L844.742 607.719L842.438 611.243L837.424 612.327L836.611 607.855V607.855ZM970.774 622.762L969.148 618.56L974.298 618.018L974.705 614.766L968.2 612.056L963.05 609.752L962.508 605.957L958.307 601.621H955.19L951.802 608.397L946.246 614.359L946.11 618.56L945.975 624.117L942.315 623.846L940.825 626.827L937.166 622.355L933.642 627.776L928.493 634.552L919.413 636.449L916.16 638.075L914.941 645.393L908.978 647.02L903.422 644.038L904.777 649.865L910.062 654.609L914.941 652.982L919.819 653.524L924.156 649.188L927.815 648.375L935.133 650.814L941.231 649.052L944.89 636.991L947.601 634.01L949.904 624.252H958.578L965.354 625.608L970.774 622.762V622.762Z" fill="white" stroke="#C9C9C9" stroke-width="2" stroke-linejoin="round"/>
<path fill-rule="evenodd" clip-rule="evenodd" d="M107.383 216.475H111.313L112.803 213.358L114.159 205.769L112.803 203.059L107.518 202.788L98.7093 206.311L93.4241 218.373L90.0361 220.676L94.9148 221.354L100.878 219.592L105.079 223.251L108.873 225.148L107.383 216.475V216.475Z" fill="#2C2948" stroke="#C9C9C9" stroke-width="2" stroke-linejoin="round"/>
<path fill-rule="evenodd" clip-rule="evenodd" d="M220.27 66.3202L210.919 67.8109L201.026 67.4043L194.115 73.3672L185.035 72.9606L173.516 76.0776L159.828 85.2929L151.155 90.7136L139.229 105.214L129.607 115.785L118.63 123.645L103.452 130.15L98.167 135.028L100.742 153.188L103.317 161.726L111.99 165.791L120.121 163.894L131.64 154.679L136.112 159.557L138.416 155.085L143.024 149.664L144.243 140.314L140.042 136.384L138.687 126.084L141.804 118.902L147.631 119.037L149.393 116.056L146.954 113.481L154.678 102.775L159.286 94.5081L162.268 89.2229L167.688 89.3584L168.501 85.1573L179.207 86.377V81.6338L182.595 81.2273L185.441 79.33L192.353 83.2601L199.535 82.8535L205.905 84.6153L210.512 81.3628L212.003 76.0776L219.863 73.6382L227.588 76.4841L226.504 81.6338L230.84 80.9562L239.513 77.9748L232.195 73.5027L238.7 71.6054L220.27 66.3202V66.3202ZM189.642 21.1923L182.053 19.8371L179.478 17.5333L169.721 18.753L173.245 20.7857L170.263 22.412L179.343 23.9027L189.642 21.1923V21.1923ZM155.221 9.94422L148.716 7.77592L141.804 8.04695L140.449 10.0797H133.673L130.692 8.04695L118.088 10.2153L122.425 14.9584L132.724 20.1082L140.449 22.0054L136.383 24.3092L147.767 28.2393L153.73 27.9683L154.949 22.683L159.015 21.4633L160.641 16.8557L172.16 14.4164L155.221 9.94422V9.94422ZM188.016 5.74313L175.684 4.38794L171.347 6.01416L164.165 4.65897L150.071 6.28521L155.898 8.99559H162.81L164.029 10.7573L178.394 11.706L192.082 11.0284L197.909 7.77592L188.016 5.74313V5.74313Z" fill="#2C2948" stroke="#C9C9C9" stroke-width="2" stroke-linejoin="round"/>
<path fill-rule="evenodd" clip-rule="evenodd" d="M716.812 420.974L708.003 420.161L699.33 418.128L692.554 414.333L686.456 412.707L683.068 408.506L678.731 407.286L670.058 401.73L663.689 399.02L661.114 401.052L657.319 404.982L656.1 412.978L663.824 416.366L671.684 420.567L682.119 425.31L692.419 426.53L697.568 430.867L703.396 431.68L712.611 433.712L718.845 433.577L718.981 430.189L716.948 424.633L716.812 420.974V420.974Z" fill="white" stroke="#C9C9C9" stroke-width="2" stroke-linejoin="round"/>
<path fill-rule="evenodd" clip-rule="evenodd" d="M626.15 355.247L613.411 351.723L609.481 344.947L603.112 340.882L599.317 341.83L596.064 343.456L588.204 344.541L581.022 346.302L577.769 350.097L580.344 353.891L582.242 358.228L579.531 361.887L580.615 365.275L579.396 368.392L572.484 368.121L576.55 373.813L572.484 375.981L570.451 381.131L571.942 386.28L569.638 388.72L566.792 387.907L561.372 389.126L561.101 391.43H555.68L552.563 396.309L553.647 403.627L544.703 407.15L539.553 406.473L538.333 408.37L533.861 407.286L526.679 408.506L513.669 404.169L518.005 408.641L521.8 413.926L529.389 417.585L530.744 425.31L534.403 426.665L535.623 430.595L525.595 435.067L523.968 445.096L534.268 443.876L546.329 443.741L559.745 442.114L566.386 448.619L569.232 454.853L574.924 457.021L579.26 451.33H595.522L593.083 443.876L588.34 439.539L586.578 432.899L581.157 428.969L587.798 420.025L596.471 420.702L602.569 411.623L605.415 402.814L610.701 394.276L609.345 388.178L614.36 383.164L607.584 378.962L603.654 373.135L599.317 365.546L601.892 361.752L613.411 363.92L621.136 362.565L626.15 355.247V355.247Z" fill="white" stroke="#C9C9C9" stroke-width="2" stroke-linejoin="round"/>
<path fill-rule="evenodd" clip-rule="evenodd" d="M1027.69 588.746L1026.88 585.629L1025.8 581.293L1019.29 577.227L1020.37 583.868L1015.09 584.139L1014.14 587.933L1008.45 590.237L1005.47 586.443L1001.67 589.695L997.065 591.999L994.49 599.317L995.981 601.892L1001.27 597.013L1004.93 597.42L1006.96 593.761L1012.11 597.826L1010.07 602.027L1012.65 608.261L1021.87 613.275L1023.76 609.21L1020.92 602.84L1024.17 598.504L1027.56 607.177L1029.59 599.317L1028.78 594.574L1027.69 588.746V588.746ZM1008.04 572.755V564.489L1003.16 572.755L1003.84 567.063L999.776 567.47L999.369 572.891L997.743 575.33L996.388 577.634L1001.54 583.597L1003.71 581.022L1005.6 575.601L1008.04 572.755V572.755ZM967.251 581.022L970.774 575.059L975.382 570.316L973.349 563.269L970.097 571.807L966.167 577.769L961.017 583.19L957.765 589.153L967.251 581.022V581.022ZM990.831 558.797L992.458 562.862L992.322 567.334L993 571.264L997.472 568.69L1000.72 565.031L1000.45 561.507H995.575L990.831 558.797V558.797ZM1017.94 556.493L1015.5 553.24L1008.18 553.105L1013.6 559.61L1014.01 562.862L1009.53 562.185L1011.16 567.47L1013.46 567.877L1014.41 573.975L1017.8 572.078L1015.5 566.657L1014.95 563.811L1021.05 566.115L1017.94 556.493V556.493ZM986.901 548.633L983.92 545.516L977.415 545.245L982.023 551.75L985.817 556.086L986.901 548.633ZM978.228 501.743H973.756L972.536 509.603L974.027 523.02L970.503 520.309L972.13 528.44L973.756 532.235L978.228 537.249L978.77 534.132L981.21 536.03L979.177 538.333L979.312 541.857L983.242 543.754L990.018 542.534L995.439 547.684L996.93 544.432L1000.32 549.039L1006.82 553.24L1007.09 549.31L1004.38 547.142L1004.52 542.534L994.355 537.656L991.238 538.74L987.037 537.791L984.326 530.88L984.462 523.968L988.527 521.122L989.341 513.94L985.682 507.706L986.224 504.183L985.275 502.014L983.242 504.183L978.228 501.743V501.743Z" fill="white" stroke="#C9C9C9" stroke-width="2" stroke-linejoin="round"/>
<path fill-rule="evenodd" clip-rule="evenodd" d="M193.98 195.334L187.746 195.199L187.068 193.301L180.563 191.811L172.839 194.656L163.217 198.451L159.016 200.755L160.913 204.956L159.287 207.124L161.997 210.106L163.894 214.578L163.759 217.424L166.876 222.709L170.128 225.284L175.142 226.097L175.007 228.401L178.666 230.027L179.479 227.994L184.087 228.807L185.035 231.518L189.914 231.924L193.438 236.125L193.844 236.667L196.419 235.448L200.078 238.429L203.872 236.667L207.125 237.48L211.733 236.396L218.373 239.513L219.864 240.055L217.695 236.261L222.845 229.349L225.962 228.401L226.369 225.961L222.167 218.779L221.49 215.12L218.915 211.19L222.574 209.564L222.167 206.311L219.864 203.194L219.051 199.535L217.153 196.96L213.765 196.147L201.975 196.283L193.98 195.334V195.334Z" fill="#2C2948" stroke="#C9C9C9" stroke-width="2" stroke-linejoin="round"/>
<path fill-rule="evenodd" clip-rule="evenodd" d="M973.62 295.618L966.166 290.74L966.302 295.483L957.764 299.006L961.423 303.478L955.189 303.207L950.311 300.497L948.956 306.46L943.806 311.067L940.96 316.488L945.432 318.792L950.04 319.741L951.124 321.096L951.666 325.839L953.157 327.465L951.937 328.414L951.801 332.344L954.376 333.699L956.545 334.512L957.629 336.138L959.391 335.461V333.699L963.592 335.461L963.727 334.648L966.98 334.919L967.928 330.989L972.671 330.582L975.517 330.04L975.382 327.872L969.554 324.077L966.031 322.722L966.302 321.773L964.676 317.979L966.438 315.675L970.368 314.32L971.723 311.745L972.129 310.254L974.704 308.357L970.91 302.259L971.316 299.413L972.536 296.702L975.517 297.109L973.62 295.618V295.618Z" fill="white" stroke="#C9C9C9" stroke-width="2" stroke-linejoin="round"/>
<path fill-rule="evenodd" clip-rule="evenodd" d="M15.365 341.153L14.823 338.307L17.5333 334.919L18.6175 332.615L16.1782 330.041L18.3464 324.213L15.636 319.064L18.6175 318.386L19.024 314.32L20.2437 313.101L20.5148 306.46L23.7672 304.156L22.0055 299.955L17.9399 299.684L16.7202 300.768H12.6546L11.0284 296.567L8.1825 297.787L5.60768 299.955L5.74317 302.801L6.96287 305.783L7.09836 309.442L5.33663 314.591L4.79452 317.979L1.81308 321.096L1 326.788L2.62625 330.041L5.74317 330.854L6.28528 336.274L4.93009 343.186L8.72461 342.237L12.3836 343.457L15.365 341.153V341.153Z" fill="#2C2948" stroke="#C9C9C9" stroke-width="2" stroke-linejoin="round"/>
<path fill-rule="evenodd" clip-rule="evenodd" d="M246.426 246.832H243.58L242.225 248.864L237.346 249.677L235.178 250.897L231.925 248.864H227.589L223.252 247.916L220.677 249.677L216.747 251.439L214.172 257.131L210.649 262.958L205.499 264.449L209.429 267.837L210.513 270.412L214.85 272.445L215.798 275.833L220 278.272L221.897 276.51L223.794 277.459L222.303 278.95L223.659 280.305L226.098 283.828L228.673 283.151L234.094 284.506L244.257 284.912L247.374 282.744L255.234 280.847L260.655 283.828L264.721 284.777L265.263 274.748L267.431 275.426L270.548 273.664L270.006 271.496L266.754 270.005L263.772 271.361L260.52 269.87L258.758 266.075L259.029 262.416L258.216 258.757L253.608 253.743L251.033 250.22L248.594 247.645L246.426 246.832Z" fill="#2C2948" stroke="#C9C9C9" stroke-width="2" stroke-linejoin="round"/>
<path fill-rule="evenodd" clip-rule="evenodd" d="M550.259 14.8229L544.161 9.40218L525.73 3.8459L512.992 1L504.589 2.21967L497.407 6.14972L505.267 7.23388L514.211 11.5705L525.053 13.8743L540.637 15.6361L550.259 14.8229V14.8229ZM308.087 4.93006L309.306 4.11693L301.582 2.89727L297.787 3.8459L296.025 5.20109L293.992 3.57487L286.946 3.71038L278.543 4.79453L288.978 4.93006L287.488 6.6918L293.451 8.04699L298.329 7.09836L298.465 6.14972L302.395 5.74317L308.087 4.93006V4.93006ZM579.802 18.3464L577.77 15.9071L560.83 12.3836L556.764 11.977L553.783 12.6546L555.409 20.7858L579.802 18.3464V18.3464ZM600.401 26.8841L587.933 25.9355L592.541 24.3093L581.429 22.2765L573.162 24.8514L571.807 27.5617L573.839 30.4076L564.489 30.2721L557.306 33.7956L551.479 32.3049L538.876 32.9825L539.282 34.7443L526.814 35.6929L520.174 38.9454L514.482 39.2164L512.856 43.6885L520.309 47.212L509.875 48.1606L497 47.7541L489.14 49.2448L495.645 56.5628L504.996 62.3902L491.986 58.3246L481.28 58.7311L474.369 61.4415L480.467 66.5913L473.826 65.2361L470.981 58.4601L465.289 54.6656L462.849 54.8011L467.728 59.8153L461.494 64.5585L472.471 70.2503L473.013 77.5683L476.943 81.4984L483.313 82.1759L483.855 86.9191L489.818 91.1202L487.243 94.6437L487.92 98.3027L482.906 100.2L482.229 102.91L475.046 101.826L479.789 91.2557L479.112 86.377L470.032 81.9049L464.882 72.012L459.868 66.9978L454.989 64.8295L456.073 59.1377L452.143 55.2076L436.83 53.3104L433.984 54.6656L434.661 61.035L428.834 67.4044L430.46 69.7082L436.83 75.2645L436.965 78.788L444.148 79.4656L445.232 80.9563L453.092 84.8863L451.737 88.6809L426.666 80.4142L417.722 78.1104L400.375 75.9421L398.749 78.2459L406.744 82.447L403.085 87.3257L394.412 82.9891L387.636 85.9705L377.337 86.106L374.491 88.6809L367.308 87.8677L370.696 83.3956L366.36 83.1246L349.691 89.3585L339.391 92.882L339.934 97.6251L331.802 99.2513L326.382 96.6765L324.755 92.6109L331.531 91.6623L326.653 87.5967L310.119 85.1574L315.947 89.765L314.862 94.1016L321.232 98.5737L319.741 103.723L313.507 101.149L308.087 100.742L297.245 108.06L302.937 113.616L298.6 115.514L283.151 110.77L280.305 113.616L284.777 116.869L285.048 120.528L279.899 118.631L271.767 116.327L269.193 108.467L267.837 104.943L256.996 99.5224L260.926 98.5737L288.165 104.266L296.839 102.233L301.853 98.3027L299.684 93.424L294.264 89.9005L270.412 81.6339L254.692 79.8721L244.393 75.5355L239.514 77.9748L230.841 80.9563L226.504 81.6339L227.046 86.6481L236.803 91.6623L233.009 97.2186L241.682 105.756L239.378 112.261L246.019 117.817L244.799 122.832L254.692 128.117L253.472 132.047L249 136.519L238.294 146.548L245.477 150.342L239.378 154.679L240.598 156.034L237.074 160.642L240.462 168.095L238.294 170.67L241.547 172.567L242.902 176.362L245.748 181.24L252.795 183.273L254.15 185.17L257.267 184.222L263.772 186.119L265.127 190.049L264.314 192.217L269.328 197.503L272.309 198.993L272.174 200.484L276.782 201.975L279.085 204.143L276.917 205.905L271.632 205.634L270.548 206.447L272.581 209.157L275.291 214.443L277.73 214.714L279.085 212.816L281.118 213.223L287.623 212.545L292.773 217.153L291.553 218.915L292.502 221.49L297.923 221.761L300.904 225.42L301.175 227.046L310.119 230.027L314.862 228.672L319.741 232.602L323.671 232.467L333.971 235.177L334.513 237.752L332.751 242.088L335.19 246.696L334.784 249.542L328.414 250.22L325.433 252.523L325.975 256.318L331.667 254.963L332.209 256.725L322.994 260.248L327.33 263.501L322.994 270.548L318.386 271.903L325.162 276.781L333.564 280.034L343.593 286.945L344.27 285.997L350.369 287.487L360.803 288.843L370.967 292.773L372.458 294.399L376.388 293.044L383.3 294.805L386.145 298.193L390.889 300.091L392.921 300.362L398.749 305.511L402.001 306.054L402.679 304.021L406.202 300.633L396.309 290.74L395.767 285.184L387.772 277.188L392.515 268.65L398.749 267.16L400.646 262.145L396.852 260.79L396.581 256.454L390.889 250.897L386.01 251.168L378.828 245.341L381.131 238.972L378.828 237.345L381.673 228.13L389.805 233.009L388.856 226.775L399.833 217.831L409.997 217.56L426.124 223.387L435.068 226.639L440.895 223.251L451.195 222.98L461.088 227.317L462.172 224.878L471.523 225.284L471.794 221.219L459.055 215.527L463.933 211.597L461.901 209.293L467.186 207.125L460.41 201.568L462.307 198.722L485.074 195.876L487.378 193.844L502.014 190.862L506.216 187.474L518.412 189.236L524.239 197.774L530.067 195.741L539.553 198.587L541.179 203.059L547.142 202.517L559.474 194.792L558.39 197.367L569.638 203.737L594.167 224.742L595.658 220.27L606.906 225.149L615.308 222.98L619.645 224.471L625.201 229.35L630.487 230.976L634.959 234.499L643.09 233.28L648.917 238.429L651.221 237.752L657.59 236.397L666.535 229.079L674.53 225.149L681.713 227.723L688.624 227.859L694.994 231.789L701.77 232.06L712.476 234.228L715.728 228.401L710.307 223.522L712.069 214.849L721.42 218.237L727.925 219.321L736.869 221.354L741.883 227.588L753.267 231.111L758.552 229.621L766.277 228.537L773.595 229.621L782.403 233.686L789.044 237.887H795.142L804.222 239.243L809.101 237.074L816.961 235.719L823.059 229.756L827.531 230.705L832.817 233.551L840.27 232.873L850.163 235.99L856.126 230.705L853.551 227.046L853.415 218.237L855.042 215.527L851.654 211.055L846.639 209.022L848.943 204.956L855.855 203.466L864.257 203.195L875.776 205.634L883.772 208.751L894.207 217.017L899.356 220.676L905.319 225.691L913.586 233.957L927.002 236.532L939.063 242.631L947.195 250.491H957.359L960.882 247.103L970.233 244.663L971.995 252.252L971.453 255.369L975.247 264.585L976.06 272.716L966.845 271.225L962.915 274.207L969.284 281.389L974.434 291.282L971.046 291.417L973.621 295.619L975.518 297.109L974.976 294.399L980.397 288.301L987.308 292.366L991.645 292.231L997.608 287.352L998.963 282.338L1001.81 272.716L1004.38 262.958L1002.62 257.131L1003.98 244.934L996.93 231.518L989.477 221.625L987.715 213.223L981.346 206.311L964.135 197.232L956.545 196.69L956.139 200.755L948.279 198.993L940.554 193.844L929.713 192.895L936.353 173.787L941.096 158.202L958.849 155.763L979.042 157.118L982.43 153.323L993.136 154.408L998.963 160.235L1007.64 159.422L1019.02 157.254L1008.58 152.51V139.229L1020.92 136.655L1037.31 146.276L1042.19 137.603L1037.86 131.234L1044.23 130.556L1053.04 141.533L1049.78 147.767L1048.7 155.898L1049.11 166.062L1041.38 167.824L1045.17 171.483L1045.04 176.362L1053.71 187.61L1075.4 205.769L1089.63 217.695L1097.35 223.522L1099.52 215.798L1093.42 207.396L1101.14 205.363L1093.83 196.012L1100.6 191.811L1094.23 188.287L1089.63 181.511L1095.18 181.24L1082.98 169.586L1073.9 167.688L1069.98 164.436L1068.48 156.847L1064.28 151.562L1073.77 152.646L1075.53 149.258L1081.9 152.239L1090.17 146.005L1105.62 151.426L1103.31 147.903L1106.02 143.024L1108.06 137.603L1112.26 136.655L1121.07 130.827L1134.35 132.454L1133.13 130.421L1127.98 127.304L1122.42 125.136L1110.09 118.902L1099.11 114.836L1107.38 115.378L1110.09 111.99L1065.5 82.3115L1052.76 79.1945L1031.49 75.671L1020.78 76.0776L1000.18 74.1803L1002.62 77.2973L1014.14 81.9049L1010.75 84.3442L991.509 77.8393L982.294 78.6524L969.826 77.1617L960.34 77.4328L955.055 78.9235L945.297 76.7552L938.386 71.6055L929.577 68.624L917.109 67.4044L897.188 68.7595L875.369 63.3388L864.799 59.2732L810.456 54.6656L807.61 57.647L820.213 64.1519L810.049 63.2033L808.694 65.2361L795.549 63.0677L788.773 64.965L776.17 61.7126L780.235 69.1661L768.174 66.3202L754.622 60.7639L754.08 57.7825L745.949 53.3104L732.668 49.7869H724.401L711.798 48.5672L718.167 53.8525L694.858 52.7683L689.573 49.6514L671.549 48.4317L664.366 49.5158L664.231 51.2776L656.371 46.941L653.254 48.1606L643.496 46.5344L635.907 45.5858L637.398 43.553L646.342 39.7585L649.459 37.7257L646.207 34.3377L638.753 31.7628L623.168 28.6459L608.532 28.5104L605.958 30.1366L600.401 26.8841V26.8841ZM380.589 69.7082L367.173 63.8809L362.972 58.0535L367.444 51.4131L371.238 44.6371L382.893 38.2678L396.174 35.0153L411.488 31.7628L413.249 29.73L407.558 27.1552L398.613 27.9683L391.973 30.4076L376.117 31.6273L362.43 35.8284L353.214 39.4874L356.602 42.4688L347.658 48.4317L352.943 49.3803L345.625 55.2076L347.794 59.0022L343.186 60.4929L345.761 64.2874L356.467 66.1847L359.448 69.3016L377.608 70.2503L380.589 69.7082V69.7082ZM806.119 36.235L781.861 32.7115L768.038 32.4404L763.431 33.6601L768.038 38.2678L784.843 42.6044L790.941 40.9781L810.185 41.2492L806.119 36.235V36.235ZM840.27 39.3519L824.414 37.5902L813.302 36.6415L815.606 38.8098L829.564 41.5202L838.779 42.0623L840.27 39.3519V39.3519ZM823.33 52.2262L819.942 50.329L808.694 47.7541L803.138 48.4317L802.054 51.1421L803.544 51.4131L815.47 52.2262H823.33V52.2262ZM1043.68 68.8951L1035.55 64.0164L1033.66 66.9978L1038.4 69.1661L1043.68 68.8951ZM213.765 196.148L212.952 194.115L213.223 191.811L210.242 190.591L203.466 189.101L194.928 191.811L193.979 195.334L201.975 196.283L213.765 196.148V196.148ZM1012.92 225.691L1003.16 217.289L996.253 209.157L987.037 201.297L980.397 195.876L978.635 196.961L984.598 200.755L982.023 204.55L991.238 215.798L1001.81 223.929L1010.48 235.177L1013.73 241.411L1021.19 250.626L1026.34 258.757L1032.57 265.804L1032.44 259.299L1041.24 264.449L1037.18 258.486L1024.31 249.949L1019.29 237.752L1031.35 240.462L1012.92 225.691V225.691Z" fill="#2C2948" stroke="#C9C9C9" stroke-width="2" stroke-linejoin="round"/>
<path fill-rule="evenodd" clip-rule="evenodd" d="M214.849 272.445L210.512 270.412L209.428 267.837L205.498 264.449L201.162 264.178L196.147 266.346L198.18 269.599L200.484 272.038L198.18 275.155H200.62L199.264 278.814L202.923 281.931L202.246 285.861L200.62 286.268L202.652 287.758L203.736 288.842L206.176 289.791L208.886 291.417L208.344 292.23L209.97 291.553L210.648 288.842L211.868 288.3L212.952 289.52L214.307 290.062L215.391 291.417L216.475 291.824L217.966 293.315H219.05L218.373 295.347L217.695 296.296L217.966 296.974L220.27 296.432L223.522 296.296L224.471 295.076L223.658 294.128L224.606 291.417L226.91 288.842L223.116 285.319L222.167 282.202L223.658 280.305L222.303 278.95L223.793 277.459L221.896 276.51L219.999 278.272L215.798 275.833L214.849 272.445V272.445Z" fill="#2C2948" stroke="#C9C9C9" stroke-width="2" stroke-linejoin="round"/>
<path fill-rule="evenodd" clip-rule="evenodd" d="M218.373 239.514L211.733 236.397L207.125 237.481L203.873 236.668L200.078 238.429L196.419 235.448L193.844 236.668L193.438 236.126H191.405L190.592 237.616L189.101 238.023L188.83 239.92L187.61 240.327L187.475 241.14L185.307 241.953L182.325 241.817L181.512 243.715L181.105 244.799L182.054 247.645L185.577 249.813L188.152 250.762L193.709 249.678L194.115 248.051L196.69 247.78L199.807 246.425L200.62 246.967L203.602 246.019L204.957 243.986L207.125 243.444L214.579 246.019L215.934 245.205L216.883 241.817L218.373 239.514V239.514Z" fill="#2C2948" stroke="#C9C9C9" stroke-width="2" stroke-linejoin="round"/>
<path fill-rule="evenodd" clip-rule="evenodd" d="M180.427 261.332L178.8 258.486L177.716 258.351L176.496 259.841L170.669 259.977L167.417 261.874L161.725 261.332L161.318 265.398L163.215 269.057L161.725 269.734L166.468 270.005L167.552 268.65L169.991 270.005L172.702 270.141L172.431 267.837L174.735 267.024L175.141 263.636L180.427 261.332Z" fill="#2C2948" stroke="#C9C9C9" stroke-width="2" stroke-linejoin="round"/>
<path fill-rule="evenodd" clip-rule="evenodd" d="M205.227 104.266L202.652 101.284L200.348 89.9005L190.591 84.8863L182.595 81.2273L179.207 81.6338V86.377L168.501 85.1573L167.688 89.3584L162.268 89.2229L159.286 94.5082L154.679 102.775L146.954 113.481L149.393 116.056L147.631 119.037L141.804 118.902L138.687 126.084L140.042 136.384L144.243 140.314L143.024 149.664L138.416 155.085L136.112 159.557L141.804 170.941L147.767 180.021L150.477 187.745L157.66 187.339L160.641 180.969L168.366 181.647L171.076 174.193L171.889 160.641L178.123 158.88L182.595 149.935L176.09 145.463L171.212 140.043L174.058 129.066L184.493 122.425L192.759 116.327L191.133 111.584L195.741 106.298L205.227 104.266V104.266Z" fill="#2C2948" stroke="#C9C9C9" stroke-width="2" stroke-linejoin="round"/>
<path fill-rule="evenodd" clip-rule="evenodd" d="M862.495 538.333L864.527 534.403L863.85 527.085L856.803 519.632L855.041 511.094L848.401 504.047L842.573 503.505L841.489 506.486L837.152 506.757L834.713 505.131L827.531 510.281L826.175 502.556L826.718 493.476L821.568 493.07L820.348 487.92L816.825 485.345L812.759 487.243L808.964 491.037L803.679 491.444L801.647 500.794L798.665 502.285L803.408 509.874L808.964 516.108L812.895 521.8L810.997 529.389L808.693 530.88L810.997 535.216L816.689 542.128L818.044 546.871L818.315 550.936L822.11 558.797L818.586 566.792L815.605 575.736L813.843 584.003L813.437 589.288L815.063 594.167L816.012 589.017L819.942 593.218L824.278 597.962L825.769 602.298L829.021 605.551L830.241 604.06L836.61 607.855L837.423 612.327L842.438 611.243L844.742 607.719L840.54 603.247L835.933 602.163L831.461 597.284L829.563 589.83L826.04 581.97L821.026 581.699L820.077 575.465L821.974 567.876L824.956 555.273L824.685 545.787L831.325 545.651L830.919 552.427L837.288 552.292L844.471 556.222L841.625 545.787L845.69 538.74L855.312 536.978L862.495 538.333V538.333Z" fill="white" stroke="#C9C9C9" stroke-width="2" stroke-linejoin="round"/>
<path fill-rule="evenodd" clip-rule="evenodd" d="M566.25 313.778L563.404 314.049L561.642 311.609L561.914 307.679L553.24 309.712L552.563 315.133L550.53 319.876L544.567 319.47L543.754 323.264L549.446 325.432L552.698 331.802L550.936 340.746L553.376 341.83L557.848 338.984L560.694 340.746L561.914 336.681L566.25 336.816L567.063 335.596L566.792 332.073L569.096 328.956L573.433 330.989V333.699L575.601 334.106L576.956 341.424L580.48 344.27L582.512 342.508L585.358 341.559L588.746 337.629L593.896 338.307H601.214L598.775 333.293L597.962 329.905L593.218 328.007L591.05 328.82L586.985 320.825L574.11 322.044L564.488 319.334L557.17 320.012L556.357 314.997L564.353 316.488L566.25 313.778V313.778Z" fill="white" stroke="#C9C9C9" stroke-width="2" stroke-linejoin="round"/>
<path fill-rule="evenodd" clip-rule="evenodd" d="M541.179 338.849L540.095 333.428L529.66 329.769L521.258 325.433L515.566 321.367L506.08 315.404L500.252 306.731L497.542 305.105L490.088 305.511L486.971 303.75L484.397 297.109L473.826 292.637L469.354 297.516L464.204 300.497L466.373 304.698L458.512 304.834L455.124 305.24L448.484 298.6L443.334 296.296L435.881 298.058L433.441 300.768L436.829 306.189L436.152 300.091L441.166 297.922L444.418 302.801L450.652 307.815L445.232 310.525L438.049 308.493L438.185 315.54L442.928 316.082L442.386 322.045L448.484 324.89L449.433 334.106L451.872 340.204L457.835 338.578L461.9 333.564L466.644 333.835L469.489 332.209L474.639 333.022L483.448 337.494L489.275 338.442L499.168 346.167L504.453 346.438L506.622 353.892L514.617 357.144L519.903 356.06L520.445 351.994L525.866 350.775L529.254 348.064L529.118 341.017L534.674 339.391L535.081 336.274L539.011 338.578L541.179 338.849V338.849Z" fill="white" stroke="#C9C9C9" stroke-width="2" stroke-linejoin="round"/>
<path fill-rule="evenodd" clip-rule="evenodd" d="M970.369 464.882L971.995 451.059L972.13 445.773L968.2 443.198L963.728 449.703L961.153 458.241L963.186 464.61L968.607 471.929L970.369 464.882V464.882Z" fill="white" stroke="#C9C9C9" stroke-width="2" stroke-linejoin="round"/>
<path fill-rule="evenodd" clip-rule="evenodd" d="M287.623 212.545L281.118 213.223L279.085 212.816L277.73 214.714L275.291 214.443L269.735 214.849L268.108 216.747L268.38 220.948L265.669 220.134L259.842 220.541L257.809 218.508L255.641 219.999L252.93 218.779L247.781 218.644L240.192 216.611L233.416 215.933L228.401 216.204L225.149 218.373L222.167 218.779L226.369 225.962L225.962 228.401L222.845 229.35L217.695 236.261L219.864 240.056L218.373 239.514L216.882 241.818L215.934 245.206L219.864 247.509L220.677 249.678L223.252 247.916L227.588 248.865H231.925L235.177 250.897L237.346 249.678L242.224 248.865L243.58 246.832H246.425L247.916 245.612L252.253 244.799L257.538 247.374L260.248 247.78L263.636 249.949V252.795L266.211 254.285L267.702 257.809L270.412 259.842L270.141 261.197L271.496 262.01L269.87 262.687L265.805 262.416L264.992 261.197L263.636 261.874L264.314 263.365L262.823 266.075L262.146 268.921L260.519 269.87L263.772 271.361L266.753 270.006L270.006 271.496L274.478 265.262L276.24 260.655L282.338 259.571L283.287 262.823L294.128 264.856L296.432 266.753L290.334 269.599L289.385 271.225L297.245 273.665L296.432 277.595L300.498 279.356L309.035 274.478L316.218 272.987L317.031 270.006L310.119 270.548L306.46 268.515L305.105 263.23L310.391 260.113L316.624 259.706L320.69 256.996L325.975 256.318L325.433 252.524L328.414 250.22L334.784 249.542L335.19 246.696L332.751 242.089L334.513 237.752L333.971 235.177L323.671 232.467L319.741 232.602L314.863 228.672L310.119 230.027L301.175 227.046L300.904 225.42L297.923 221.761L292.502 221.49L291.553 218.915L292.773 217.153L287.623 212.545V212.545Z" fill="#2C2948" stroke="#C9C9C9" stroke-width="2" stroke-linejoin="round"/>
<path fill-rule="evenodd" clip-rule="evenodd" d="M560.424 296.703L557.036 298.329L549.718 304.156L548.498 310.254H545.923L542.806 306.189L533.862 305.918L530.339 299.142L526.951 299.006L524.918 290.604L514.754 284.506L503.099 285.183L495.375 286.403L486.566 278.95L480.061 275.833L467.729 269.734L466.238 269.057L450.111 273.935L458.513 304.834L466.374 304.698L464.205 300.497L469.355 297.516L473.827 292.637L484.398 297.109L486.972 303.749L490.089 305.511L497.543 305.105L500.253 306.731L506.081 315.404L515.567 321.367L521.259 325.433L529.661 329.769L540.096 333.428L541.18 338.849H545.11L550.938 340.746L552.699 331.802L549.447 325.433L543.755 323.264L544.568 319.47L550.531 319.876L552.564 315.133L553.241 309.712L561.915 307.68L561.643 311.61L563.405 314.049L566.251 313.778L571.807 314.591L578.854 308.493L569.233 304.021L564.896 306.189L558.662 303.072L562.863 297.516L560.424 296.703V296.703Z" fill="white" stroke="#C9C9C9" stroke-width="2" stroke-linejoin="round"/>
<path fill-rule="evenodd" clip-rule="evenodd" d="M874.555 475.452L866.56 473.284L862.494 469.761L862.765 464.746L855.718 463.256L851.653 460.003L846.096 464.611L838.914 465.559H833.087L829.428 467.592L834.848 474.504L839.456 482.228L848.671 482.364L852.737 489.817L848.265 492.121L846.503 495.238L856.396 500.388L864.121 510.552L869.948 518.141L876.453 524.104L879.163 530.202L878.892 538.875L881.331 544.567L881.467 555.002L869.406 561.643L873.2 566.792L865.34 567.47L858.971 570.858L865.069 575.872L863.308 581.699L866.424 587.12L875.369 579.124L880.925 571.942L889.192 566.386L895.019 560.694L894.477 545.516L889.056 529.66L883.5 522.749L875.911 517.328L867.237 506.08L860.055 497L860.733 491.037L865.747 482.906L874.555 475.452V475.452Z" fill="white" stroke="#C9C9C9" stroke-width="2" stroke-linejoin="round"/>
<path fill-rule="evenodd" clip-rule="evenodd" d="M134.757 297.651L133.267 290.604L128.93 293.721L127.575 296.838L129.472 302.53L132.724 304.156L134.757 297.651ZM92.0688 228.672L88.8163 225.419L85.8349 225.284L84.8863 222.302L79.0589 223.929L77.1617 230.84L61.8481 237.345L55.6141 233.822L57.5114 243.308L46.3988 241.14L37.7256 242.901L38.2677 249.135L48.4316 252.388L53.3103 256.589L60.2218 265.398L58.8666 282.066L55.2076 287.081L57.918 290.333L70.6568 294.128L73.2316 292.366L80.9562 296.16L89.0874 295.076L89.765 290.062L99.7934 287.352L113.345 289.52L119.444 284.912L120.121 281.253L116.462 280.169L114.429 273.664L116.733 271.225L114.565 267.972L114.836 265.669L112.397 262.01L109.144 263.229V259.435L113.887 254.692L113.616 252.523L116.733 253.336L118.495 251.981L119.173 245.883L122.29 240.191L112.668 238.565L109.415 236.396L107.518 236.532L106.027 235.854L100.064 232.06L96.6764 232.602L92.0688 228.672V228.672Z" fill="#2C2948" stroke="#C9C9C9" stroke-width="2" stroke-linejoin="round"/>
<path fill-rule="evenodd" clip-rule="evenodd" d="M79.6012 327.33V327.059H78.9236L78.5171 326.517L78.3815 326.788L78.246 327.059V327.33H78.9236L79.4657 327.466L79.6012 327.33ZM78.5171 325.162H78.9236L79.7367 324.213V323.807L79.3301 323.536L77.8395 323.807L77.5684 324.213V324.62L77.1619 324.755L77.0263 325.297L77.1619 325.568L78.246 325.704L78.5171 325.162V325.162ZM55.2078 287.081L44.0952 286.81L38.4034 287.217L31.0854 285.861H21.8701L13.4679 284.371L3.43945 290.469L6.14984 293.992L5.60781 299.955L8.18262 297.787L11.0286 296.567L12.6547 300.768H16.7203L17.94 299.684L22.0056 299.955L23.7673 304.156L20.5149 306.46L20.2439 313.101L19.0241 314.32L18.6176 318.386L15.6362 319.064L18.3466 324.213L16.1783 330.041L18.6176 332.615L17.5335 334.919L14.8231 338.307L15.3651 341.153L21.8701 342.508L23.7673 347.523L26.4777 350.504L29.8657 351.317L32.7116 347.929L37.1837 344.812L43.9597 344.948H53.0395L58.1892 338.172L63.4744 336.41L65.1006 330.718L69.1662 326.788L66.4558 321.774L69.1662 314.862L73.3674 310.119L74.045 307.273L82.9892 305.512L89.4941 299.82L89.0875 295.077L80.9564 296.161L73.2318 292.366L70.657 294.128L57.9181 290.333L55.2078 287.081V287.081ZM90.4427 317.708L90.5782 317.302L90.7138 317.031L90.8493 316.895L90.5782 316.624V316.489L90.8493 316.218L90.5782 316.082L88.8165 316.624L87.8678 317.166L85.022 319.199V319.606L85.1575 319.877H85.6996L85.9706 320.419L86.5126 319.877L86.9193 319.741L87.3258 319.877L87.7323 320.148L87.8678 320.961L88.0034 321.232L88.8165 321.367L90.0362 321.909L90.5782 321.638L91.2558 321.232L91.5269 320.419L91.9334 319.741L92.34 319.064L92.7466 318.521L92.611 317.979L92.2045 317.844L91.7979 317.708L91.1203 317.979L90.4427 317.708V317.708ZM98.5739 317.302L98.7094 316.76V316.624L98.0318 315.676L96.8121 315.269L95.457 315.404L95.3214 315.54V316.082L95.457 316.218L96.27 316.353L98.4384 317.302H98.5739V317.302Z" fill="#2C2948" stroke="#C9C9C9" stroke-width="2" stroke-linejoin="round"/>
<path fill-rule="evenodd" clip-rule="evenodd" d="M80.1431 294.805L80.2786 294.534L80.4141 294.263V294.128L80.1431 293.992L79.1945 293.721L78.7879 293.586L78.5169 293.721L78.2458 293.992L78.1104 294.399L78.2458 294.534V294.805V295.076L78.3813 295.347H78.6524H78.9234L79.33 295.212L80.0076 294.805H80.1431V294.805Z" fill="#2C2948" stroke="#C9C9C9" stroke-width="2" stroke-linejoin="round"/>
<path fill-rule="evenodd" clip-rule="evenodd" d="M919.685 469.896V469.625V469.354L919.143 469.083H918.736L918.872 469.354L919.414 470.032L919.685 469.896ZM917.923 469.896L917.787 469.218L918.058 468.812L916.839 469.218L916.703 469.625V469.76L916.974 469.896H917.923V469.896ZM920.091 468.27L919.956 467.863L919.685 467.728L919.549 467.321L919.414 467.05L919.007 466.915L918.736 466.779H918.194L918.058 466.915H917.787L917.516 467.186V467.457L916.839 467.999V468.27L917.245 468.541L917.923 468.405L918.736 468.676L919.82 469.083V468.812V468.405L920.091 468.27V468.27Z" fill="white" stroke="#C9C9C9" stroke-width="2" stroke-linejoin="round"/>
<path fill-rule="evenodd" clip-rule="evenodd" d="M132.996 256.724V256.453L133.131 256.182L132.996 256.047L132.86 255.776L132.725 255.64V255.369L132.589 255.234V254.963L132.454 254.827L132.183 255.64V256.318L132.318 256.589H132.454L132.996 256.724V256.724Z" fill="#2C2948" stroke="#C9C9C9" stroke-width="2" stroke-linejoin="round"/>
<path fill-rule="evenodd" clip-rule="evenodd" d="M627.234 633.468L627.369 633.332V633.061L627.234 632.926H627.098L626.963 633.197V633.332V633.468H627.234V633.468ZM627.64 625.472L627.776 625.201V625.066V624.93V624.795V624.659L627.64 624.795L627.505 625.066V625.201L627.369 625.337V625.472H627.505H627.64Z" fill="white" stroke="#C9C9C9" stroke-width="2" stroke-linejoin="round"/>
<path fill-rule="evenodd" clip-rule="evenodd" d="M172.568 352.13L172.297 351.859L171.619 351.182L170.941 351.046L171.077 351.859L171.619 352.401H172.297L172.568 352.13ZM170.67 350.504V350.233L170.264 350.097L169.722 350.233L169.857 350.368L170.264 350.639L170.67 350.504V350.504Z" fill="#2C2948" stroke="#C9C9C9" stroke-width="2" stroke-linejoin="round"/>
<path fill-rule="evenodd" clip-rule="evenodd" d="M303.071 358.092L302.665 357.957L301.987 358.228L301.445 358.77L300.903 359.177L300.226 358.77L300.497 359.99L301.31 361.48L301.581 361.887L301.987 362.158L303.478 362.565H303.885H304.698L304.969 362.7L305.24 363.242H305.782V363.107V362.7L306.053 362.429L306.459 362.158H306.866L307.679 362.022L308.492 361.751L309.17 361.209L310.39 359.854H310.796H311.203H312.016L312.829 359.719L312.558 359.177L312.422 359.041L311.88 358.364L311.609 357.821L311.745 357.008L315.133 354.433L315.81 353.756L314.726 354.027L313.913 354.569L313.371 354.84L312.422 355.382L309.305 356.466L308.221 356.602H307.137L305.782 356.466L304.562 356.195V357.144L304.291 357.957L303.478 358.228L303.071 358.092V358.092Z" stroke="#C9C9C9" stroke-width="2" stroke-linejoin="round"/>
<circle cx="832.005" cy="549.005" r="17.0048" fill="#2C2948"/>
<circle cx="832.005" cy="549.005" r="12.8282" fill="#A0182F"/>
<path d="M523.705 354.285L519.915 351.673L500.682 360.757L490.259 353.573C488.687 352.489 486.6 352.922 485.587 354.541C484.575 356.161 485.027 358.344 486.6 359.428L497.023 366.612L496.74 388.756L500.53 391.368L505.55 372.489L515.973 379.673L516.376 385.535L519.219 387.495L521.593 379.357L527.757 373.832L524.914 371.873L519.632 373.818L509.21 366.634L523.705 354.285Z" fill="#A0182F"/>
<path d="M770.815 316.892L768.881 312.715L747.703 310.747L742.386 299.26C741.584 297.526 739.567 296.836 737.871 297.716C736.175 298.595 735.454 300.704 736.256 302.438L741.573 313.926L730.061 332.845L731.994 337.022L745.923 323.325L751.24 334.812L748.603 340.064L750.053 343.197L756.238 337.401L764.356 335.781L762.906 332.648L757.369 331.634L752.053 320.146L770.815 316.892Z" fill="#A0182F"/>
<path d="M926.114 486.659L929.512 483.554L924.986 462.771L934.33 454.231C935.74 452.942 935.788 450.811 934.437 449.461C933.086 448.11 930.858 448.06 929.448 449.348L920.104 457.888L898.591 452.633L895.193 455.738L912.459 464.876L903.116 473.416L897.313 472.49L894.764 474.819L902.159 478.962L906.156 486.211L908.705 483.882L907.998 478.298L917.342 469.758L926.114 486.659Z" fill="#A0182F"/>
</svg>
