<svg width="185" height="100" viewBox="0 0 148 100" fill="none" xmlns="http://www.w3.org/2000/svg">
<path fill-rule="evenodd" clip-rule="evenodd" d="M134.845 16.2213L129.815 12.2596L118.289 7.25532L113.05 10.8L103.2 13.0936L102.991 8.71489L92.7221 5.79575L92.3029 1L86.0159 2.87658L78.4715 1.20852L79.3097 8.29787L81.8246 12.8851L75.5375 19.1404L73.4419 16.4298L65.2688 17.0553L63.3827 19.766L65.4784 23.9362L63.3827 35.6128L61.0775 40.4085H55L57.3052 53.7532L56.467 62.5106L58.5627 65.4298L58.1435 71.0596L63.1732 74.3958L78.0524 76.8979L73.2324 85.6553L72.1845 95.0383H80.9864L83.082 92.1192L94.3987 96.0809L97.5422 95.4553L102.991 99L104.248 95.6638L113.469 96.2894L120.595 93.7872L125.624 94.2043L129.187 96.9149L130.025 94.6213L127.929 86.2808L131.492 84.6128L134.635 78.566L128.558 73.1447L123.109 70.017L121.642 64.5957L119.547 60.6341L126.672 57.9234L130.235 54.7958L137.36 52.2936L139.665 49.7915L142.599 51.2511L147 50L142.18 41.8681L142.389 37.4894L139.456 30.6085L135.264 26.0213L137.779 22.6851L134.845 16.2213Z" fill="white" stroke="#C9C9C9" stroke-width="2" stroke-linejoin="round"/>
<path d="M13.516 39.4432V44.483C13.3081 44.7134 12.9878 44.9606 12.5552 45.2246C12.1282 45.4831 11.5888 45.705 10.9371 45.8904C10.2853 46.0758 9.5184 46.1686 8.6363 46.1686C7.82162 46.1686 7.08278 46.0393 6.4198 45.7809C5.75682 45.5168 5.18654 45.1319 4.70897 44.6263C4.23702 44.115 3.87182 43.4913 3.61337 42.7553C3.36054 42.0137 3.23412 41.1653 3.23412 40.2101V39.5275C3.23412 38.5724 3.36334 37.724 3.6218 36.9823C3.88025 36.2407 4.24264 35.617 4.70897 35.1114C5.18093 34.6001 5.73435 34.2124 6.36924 33.9483C7.00974 33.6843 7.71206 33.5522 8.47617 33.5522C9.60549 33.5522 10.5241 33.732 11.232 34.0916C11.94 34.4456 12.4765 34.9372 12.8417 35.5665C13.2069 36.1901 13.4289 36.9121 13.5075 37.7324H10.6674C10.6112 37.3279 10.5044 36.9851 10.3471 36.7042C10.1954 36.4177 9.97631 36.2014 9.68976 36.0553C9.40322 35.9036 9.0324 35.8277 8.5773 35.8277C8.22334 35.8277 7.90027 35.9036 7.60811 36.0553C7.32157 36.207 7.07717 36.4373 6.8749 36.7463C6.67263 37.0497 6.51532 37.4318 6.40295 37.8925C6.2962 38.3532 6.24282 38.8926 6.24282 39.5106V40.2101C6.24282 40.8226 6.29339 41.3591 6.39452 41.8198C6.50127 42.2806 6.65859 42.6654 6.86647 42.9744C7.07998 43.2778 7.34966 43.5082 7.67554 43.6655C8.00703 43.8172 8.39751 43.8931 8.84699 43.8931C9.16163 43.8931 9.43131 43.8678 9.65605 43.8172C9.88079 43.761 10.0662 43.6936 10.2123 43.615C10.364 43.5307 10.4792 43.452 10.5578 43.379V41.4743H8.50145V39.4432H13.516ZM23.6882 43.7245V46H17.1483V43.7245H23.6882ZM18.2018 33.7292V46H15.2436V33.7292H18.2018ZM22.8455 38.6004V40.8001H17.1483V38.6004H22.8455ZM23.7135 33.7292V36.0131H17.1483V33.7292H23.7135ZM24.9018 33.7292H29.7309C30.6748 33.7292 31.4951 33.8697 32.1918 34.1506C32.8885 34.4315 33.4251 34.8473 33.8015 35.3979C34.1836 35.9485 34.3746 36.6284 34.3746 37.4374C34.3746 38.1397 34.265 38.7269 34.0459 39.1988C33.8268 39.6708 33.5206 40.0613 33.1273 40.3703C32.7396 40.6737 32.2873 40.9237 31.7704 41.1203L30.8012 41.6681H26.7475L26.7306 39.3842H29.7309C30.1074 39.3842 30.4192 39.3168 30.6664 39.182C30.9136 39.0471 31.099 38.8561 31.2226 38.6089C31.3519 38.356 31.4165 38.0555 31.4165 37.7071C31.4165 37.3531 31.3519 37.0497 31.2226 36.7969C31.0934 36.5441 30.9024 36.3502 30.6495 36.2154C30.4023 36.0806 30.0961 36.0131 29.7309 36.0131H27.86V46H24.9018V33.7292ZM31.6187 46L28.905 40.5725L32.0401 40.5557L34.7876 45.8736V46H31.6187ZM37.6277 33.7292H40.038L42.777 42.2665L45.5161 33.7292H47.9264L43.7547 46H41.7994L37.6277 33.7292ZM36.1613 33.7292H38.6559L39.1194 43.1346V46H36.1613V33.7292ZM46.8982 33.7292H49.4012V46H46.4347V43.1346L46.8982 33.7292ZM56.6491 36.3081L53.6573 46H50.48L54.9888 33.7292H57.0031L56.6491 36.3081ZM59.1269 46L56.1266 36.3081L55.7389 33.7292H57.7784L62.3125 46H59.1269ZM59.0089 41.4237V43.7077H52.7133V41.4237H59.0089ZM73.4624 33.7292V46H70.5127L66.1724 38.3645V46H63.2143V33.7292H66.1724L70.5127 41.3647V33.7292H73.4624ZM77.3223 33.7292L79.581 39.0555L81.848 33.7292H85.0337L81.0895 41.5923V46H78.0808V41.5923L74.1282 33.7292H77.3223Z" fill="#353535"/>
<circle cx="109.505" cy="40.5051" r="9.50513" fill="#2C2948"/>
<circle cx="109.505" cy="40.5055" r="7.17053" fill="#A0182F"/>
</svg>
