<svg width="146" height="200" viewBox="0 0 146 200" fill="none" xmlns="http://www.w3.org/2000/svg">
<path d="M105.764 72.4894C105.764 54.0699 90.7902 39.0967 72.3707 39.0967C53.9513 39.0967 38.978 54.0699 38.978 72.4894C38.978 91.0277 53.9513 106.001 72.3707 106.001C90.7902 106.001 105.764 91.0277 105.764 72.4894Z" fill="#919191"/>
<path d="M22.3413 72.6084C22.3413 44.8009 44.92 22.2222 72.7275 22.2222V24.48C59.4179 24.48 47.4156 29.8276 38.7406 38.6214C30.0656 47.2964 24.5992 59.4176 24.5992 72.6084" fill="#919191"/>
<path d="M23.4105 72.6084C23.4105 58.9424 28.877 46.7023 37.9084 37.7897C46.8211 28.877 59.18 23.2917 72.7272 23.2917V22.2222H71.6577V24.4801H72.7272V23.4106C59.18 23.4106 46.8211 28.877 37.9084 37.7897C28.9958 46.7023 23.5294 59.0612 23.4105 72.6084H25.6684C25.6684 59.6554 30.8972 47.8907 39.4533 39.3345C48.0095 30.7784 59.7742 25.5496 72.7272 25.5496H73.7968V21.1527H72.7272C58.467 21.1527 45.6328 26.8568 36.3636 36.2448C27.0944 45.5139 21.2715 58.467 21.2715 72.6084H23.4105Z" fill="#919191"/>
<path d="M11.7646 72.6084C11.7646 57.041 17.7064 41.4736 29.59 29.4712L31.1348 31.016C19.7266 42.4242 13.9037 57.5163 13.9037 72.4896C13.9037 87.4628 19.6078 102.555 31.1348 113.963L29.59 115.508C17.7064 103.862 11.7646 88.1759 11.7646 72.6084Z" fill="#919191"/>
<path d="M12.8344 72.6086C12.8344 57.2788 18.6573 41.949 30.422 30.3032L29.709 29.5902L28.996 30.3032L30.5408 31.848L31.2539 31.135L30.5408 30.422C18.7761 42.0679 12.9532 57.3976 12.8344 72.6086C12.9532 87.9383 18.7761 103.149 30.422 114.914L31.135 114.201L30.422 113.488L28.8772 115.033L29.5901 115.746L30.3032 115.033C18.6573 103.268 12.8344 87.9383 12.8344 72.6086H10.6953C10.6953 88.4137 16.7559 104.338 28.8772 116.459L29.5901 117.172L32.6799 114.082L31.9668 113.369C20.6775 102.08 15.0922 87.3442 15.0922 72.6086C15.0922 57.873 20.6775 43.1374 31.9668 31.848L32.6799 31.135L29.5901 28.0453L28.8772 28.7583C16.7559 40.8795 10.6953 56.8035 10.6953 72.6086H12.8344Z" fill="#919191"/>
<path d="M1.18848 72.6085H3.44634C3.44634 91.741 11.1706 109.091 23.6484 121.569C36.1261 134.046 53.4761 141.89 72.6086 141.89V144.147C33.274 144.147 1.18848 112.062 1.18848 72.6085Z" fill="#919191"/>
<path d="M1.18835 73.6778H3.44622V72.6083H2.37671C2.37671 92.0973 10.2199 109.566 22.9353 122.4C35.6506 135.116 53.2383 142.959 72.6084 142.959V141.889H71.5389V144.147H72.6084V143.078C53.1194 143.078 35.5318 135.235 22.8164 122.4C10.101 109.685 2.13906 92.0973 2.13906 72.6083H0C0 112.656 32.4421 145.217 72.6084 145.217H73.678V140.82H72.6084C53.8325 140.82 36.7201 133.214 24.3613 120.856C12.0024 108.497 4.39692 91.5032 4.39692 72.6083V71.5388H1.06951V73.6778H1.18835Z" fill="#919191"/>
<path d="M72.7271 120.737C86.0366 120.737 98.039 115.389 106.714 106.595C115.389 97.9204 120.855 85.7992 120.855 72.4896H123.113C123.113 100.297 100.535 122.876 72.7271 122.876" fill="#919191"/>
<path d="M72.7271 121.806C86.2743 121.806 98.6332 116.34 107.546 107.427C116.458 98.5146 121.925 86.1557 121.925 72.6085H120.855V73.678H123.113V72.6085H122.044C122.044 86.2746 116.577 98.5146 107.546 107.546C98.6332 116.459 86.2743 122.044 72.7271 122.044V124.183C86.9873 124.183 99.8215 118.36 109.091 109.091C118.36 99.8218 124.183 86.8688 124.183 72.7273V71.6578H119.786V72.7273C119.786 85.7992 114.557 97.4451 106.001 106.001C97.4448 114.557 85.6801 119.786 72.7271 119.786V121.806Z" fill="#919191"/>
<path d="M114.201 114.082C125.728 102.555 131.432 87.5817 131.432 72.4896C131.432 57.5163 125.728 42.4242 114.32 31.016L115.865 29.4712C127.748 41.3547 133.69 56.9221 133.69 72.4896C133.69 88.057 127.748 103.743 115.865 115.627" fill="#919191"/>
<path d="M114.914 114.914C126.56 103.268 132.383 87.9382 132.383 72.6084C132.383 57.2786 126.56 42.0677 114.914 30.4218L114.201 31.1348L114.914 31.8479L116.459 30.303L115.746 29.59L115.033 30.303C126.679 41.9488 132.502 57.2786 132.502 72.4895V72.6084V72.7272C132.502 87.9382 126.679 103.268 114.914 114.914L116.459 116.459C128.58 104.337 134.641 88.5323 134.641 72.6084V72.4895V72.3707C134.641 56.5656 128.58 40.6417 116.459 28.6393L115.746 27.9263L112.656 31.016L113.369 31.729C124.659 43.0184 130.244 57.754 130.244 72.4895C130.244 87.2251 124.659 101.961 113.369 113.25L114.914 114.914Z" fill="#919191"/>
<path d="M141.889 72.6084C141.889 53.4759 134.165 36.1259 121.569 23.6482C109.091 11.1705 91.7409 3.32734 72.6084 3.32734V1.06946C112.062 1.06946 144.028 33.0362 144.028 72.6084" fill="#919191"/>
<path d="M142.959 72.6084C142.959 53.2383 135.116 35.6506 122.4 22.9352C109.685 10.2198 92.0974 2.37671 72.7272 2.37671V3.44622H73.7967V1.18835H72.7272V2.25787C92.2162 2.25787 109.804 10.101 122.519 22.9352C135.235 35.5318 143.078 53.1194 142.959 72.6084H145.217C145.217 32.5609 112.775 0 72.7272 0H71.6577V4.39691H72.7272C91.5032 4.39691 108.616 12.0024 120.856 24.3612C133.214 36.7201 140.82 53.7136 140.82 72.6084H142.959Z" fill="#919191"/>
<path d="M18.063 176.114H38.0273V200H19.8455C14.9733 200 11.1705 199.762 7.1301 196.435C2.97086 193.107 0.950684 187.879 0.950684 180.511C0.950684 166.251 7.01128 159.715 19.8455 159.715H38.0273V166.607H19.8455C13.0719 166.607 10.3387 170.885 10.3387 180.154C10.3387 188.711 13.0719 192.632 19.8455 192.632H29.3523V183.125H18.063" fill="#919191"/>
<path d="M52.6441 164.349C55.7339 161.141 60.8438 159.715 68.3304 159.715H81.1646V166.726H67.6174C60.3684 166.726 57.1599 169.578 57.041 176.47H81.2834V183.363H57.041V199.881H48.6037V181.462C48.4849 173.381 48.9602 168.033 52.6441 164.349Z" fill="#919191"/>
<path d="M103.744 166.845C99.3466 166.845 97.2076 168.39 97.2076 172.074C97.2076 175.044 98.9901 176.47 102.555 176.47H113.726C122.757 176.47 126.56 179.441 126.56 187.879C126.56 196.316 122.044 199.881 112.537 199.881H90.0775V192.751H111.23C115.746 192.751 117.766 191.681 117.766 188.235C117.766 184.67 115.865 183.601 111.824 183.601H101.723C92.573 183.601 88.2949 180.154 88.2949 172.074C88.2949 163.28 92.8107 159.715 102.436 159.715H124.54V166.845" fill="#919191"/>
</svg>
