<svg width="78" height="54" viewBox="0 0 78 54" fill="none" xmlns="http://www.w3.org/2000/svg">
<path d="M11.7753 21.2114L9.99599 23.1921V29H2.20736V5.49982H9.99599V14.027L17.7175 5.49982H26.3454L16.9453 15.8399L26.8154 29H17.6503L11.7753 21.2114ZM42.5692 16.612H49.4514V26.5493C48.0637 27.5117 46.4523 28.2502 44.6171 28.765C42.7818 29.2798 40.9801 29.5371 39.212 29.5371C36.7053 29.5371 34.456 29.0224 32.4641 27.9928C30.4722 26.9409 28.9055 25.4862 27.7641 23.6285C26.645 21.7485 26.0855 19.6223 26.0855 17.2499C26.0855 14.8775 26.645 12.7625 27.7641 10.9049C28.9055 9.02485 30.4834 7.57007 32.4977 6.54054C34.5344 5.48863 36.8284 4.96267 39.3799 4.96267C41.6851 4.96267 43.7442 5.35434 45.5571 6.13768C47.3923 6.89864 48.9142 8.0177 50.1228 9.49485L45.0535 13.9599C43.5763 12.2365 41.8194 11.3749 39.7827 11.3749C38.037 11.3749 36.6494 11.9008 35.6198 12.9527C34.5903 14.0046 34.0755 15.437 34.0755 17.2499C34.0755 19.018 34.5791 20.4392 35.5863 21.5135C36.6158 22.5878 37.981 23.125 39.682 23.125C40.6892 23.125 41.6516 22.9347 42.5692 22.5542V16.612ZM71.6273 16.7128C73.0149 17.2275 74.0892 17.9773 74.8502 18.9621C75.6111 19.9468 75.9916 21.133 75.9916 22.5207C75.9916 24.5797 75.1411 26.18 73.4402 27.3214C71.7392 28.4405 69.2773 29 66.0544 29H52.8272V5.49982H65.383C68.5163 5.49982 70.8775 6.05935 72.4666 7.1784C74.078 8.29746 74.8838 9.7858 74.8838 11.6434C74.8838 12.7401 74.604 13.7249 74.0445 14.5977C73.5073 15.4706 72.7016 16.1756 71.6273 16.7128ZM60.6158 11.0391V14.5306H64.3087C66.032 14.5306 66.8937 13.9487 66.8937 12.7849C66.8937 11.6211 66.032 11.0391 64.3087 11.0391H60.6158ZM65.383 23.4607C67.1287 23.4607 68.0016 22.8452 68.0016 21.6142C68.0016 20.3833 67.1287 19.7678 65.383 19.7678H60.6158V23.4607H65.383Z" fill="#A0182F"/>
<path d="M5.0328 36.7862H2.73873V34.7383H9.96784V36.7862H7.67377V42.5717H5.0328V36.7862ZM19.4943 34.7383V42.5717H16.8534V39.6846H14.4138V42.5717H11.7728V34.7383H14.4138V37.5136H16.8534V34.7383H19.4943ZM28.3988 40.5798V42.5717H21.8859V34.7383H28.2533V36.7302H24.4821V37.6479H27.7945V39.5503H24.4821V40.5798H28.3988ZM37.6495 36.7302V38.0731H40.9172V40.065H37.6495V42.5717H35.0086V34.7383H41.376V36.7302H37.6495ZM46.6865 40.6022H45.9703V42.5717H43.3293V34.7383H47.1006C47.8242 34.7383 48.4546 34.8577 48.9918 35.0964C49.5289 35.3352 49.943 35.6783 50.2339 36.126C50.5249 36.5736 50.6704 37.0958 50.6704 37.6926C50.6704 38.2522 50.5435 38.7408 50.2899 39.1586C50.0362 39.5764 49.6707 39.9084 49.1932 40.1546L50.8382 42.5717H48.0182L46.6865 40.6022ZM48.007 37.6926C48.007 37.4017 47.9175 37.1779 47.7384 37.0212C47.5594 36.8571 47.2908 36.775 46.9327 36.775H45.9703V38.6103H46.9327C47.2908 38.6103 47.5594 38.5319 47.7384 38.3753C47.9175 38.2111 48.007 37.9836 48.007 37.6926ZM56.5355 42.7508C55.3344 42.7508 54.3981 42.4262 53.7267 41.7772C53.0553 41.1281 52.7195 40.218 52.7195 39.0467V34.7383H55.3605V38.9684C55.3605 39.5428 55.4612 39.9606 55.6627 40.2217C55.8715 40.4828 56.17 40.6134 56.5579 40.6134C56.9458 40.6134 57.2405 40.4828 57.442 40.2217C57.6508 39.9606 57.7553 39.5428 57.7553 38.9684V34.7383H60.3515V39.0467C60.3515 40.218 60.0158 41.1281 59.3444 41.7772C58.6729 42.4262 57.7366 42.7508 56.5355 42.7508ZM62.6812 34.7383H65.3221V42.5717H62.6812V34.7383ZM69.4135 36.7862H67.1194V34.7383H74.3485V36.7862H72.0545V42.5717H69.4135V36.7862ZM8.82972 52.7508C8.00162 52.7508 7.25558 52.5792 6.59161 52.236C5.92763 51.8854 5.40541 51.4004 5.02493 50.7812C4.65191 50.1546 4.4654 49.4458 4.4654 48.655C4.4654 47.8642 4.65191 47.1592 5.02493 46.54C5.40541 45.9133 5.92763 45.4284 6.59161 45.0852C7.25558 44.7346 8.00162 44.5593 8.82972 44.5593C9.59068 44.5593 10.2696 44.6936 10.8664 44.9621C11.4632 45.2307 11.9556 45.6186 12.3436 46.126L10.6762 47.6143C10.1912 47.0025 9.62052 46.6967 8.96401 46.6967C8.41194 46.6967 7.96805 46.8757 7.63233 47.2338C7.29661 47.5845 7.12875 48.0582 7.12875 48.655C7.12875 49.2518 7.29661 49.7293 7.63233 50.0874C7.96805 50.438 8.41194 50.6134 8.96401 50.6134C9.62052 50.6134 10.1912 50.3075 10.6762 49.6957L12.3436 51.1841C11.9556 51.6914 11.4632 52.0793 10.8664 52.3479C10.2696 52.6165 9.59068 52.7508 8.82972 52.7508ZM18.1682 52.7508C17.3251 52.7508 16.5679 52.5754 15.8965 52.2248C15.225 51.8742 14.6991 51.3892 14.3186 50.77C13.9381 50.1434 13.7479 49.4384 13.7479 48.655C13.7479 47.8717 13.9381 47.1704 14.3186 46.5512C14.6991 45.9245 15.225 45.4359 15.8965 45.0852C16.5679 44.7346 17.3251 44.5593 18.1682 44.5593C19.0112 44.5593 19.7684 44.7346 20.4398 45.0852C21.1113 45.4359 21.6372 45.9245 22.0177 46.5512C22.3982 47.1704 22.5884 47.8717 22.5884 48.655C22.5884 49.4384 22.3982 50.1434 22.0177 50.77C21.6372 51.3892 21.1113 51.8742 20.4398 52.2248C19.7684 52.5754 19.0112 52.7508 18.1682 52.7508ZM18.1682 50.6134C18.4964 50.6134 18.7911 50.535 19.0522 50.3784C19.3208 50.2142 19.5334 49.9867 19.6901 49.6957C19.8467 49.3973 19.9251 49.0504 19.9251 48.655C19.9251 48.2596 19.8467 47.9164 19.6901 47.6255C19.5334 47.3271 19.3208 47.0995 19.0522 46.9429C18.7911 46.7787 18.4964 46.6967 18.1682 46.6967C17.8399 46.6967 17.5415 46.7787 17.2729 46.9429C17.0118 47.0995 16.8029 47.3271 16.6462 47.6255C16.4896 47.9164 16.4112 48.2596 16.4112 48.655C16.4112 49.0504 16.4896 49.3973 16.6462 49.6957C16.8029 49.9867 17.0118 50.2142 17.2729 50.3784C17.5415 50.535 17.8399 50.6134 18.1682 50.6134ZM31.6601 52.5717L31.6377 49.0019L29.9368 51.8667H28.773L27.072 49.125V52.5717H24.666V44.7383H26.837L29.3884 48.9124L31.8727 44.7383H34.0437L34.0661 52.5717H31.6601ZM40.2332 44.7383C40.9569 44.7383 41.5873 44.8577 42.1244 45.0964C42.6616 45.3352 43.0756 45.6783 43.3666 46.126C43.6575 46.5736 43.803 47.0958 43.803 47.6926C43.803 48.2895 43.6575 48.8117 43.3666 49.2593C43.0756 49.7069 42.6616 50.0501 42.1244 50.2888C41.5873 50.5276 40.9569 50.6469 40.2332 50.6469H39.103V52.5717H36.462V44.7383H40.2332ZM40.0654 48.6103C40.4235 48.6103 40.692 48.5319 40.8711 48.3753C41.0501 48.2111 41.1397 47.9836 41.1397 47.6926C41.1397 47.4017 41.0501 47.1779 40.8711 47.0212C40.692 46.8571 40.4235 46.775 40.0654 46.775H39.103V48.6103H40.0654ZM50.7327 51.2065H47.756L47.23 52.5717H44.5443L47.9686 44.7383H50.5648L53.9891 52.5717H51.2586L50.7327 51.2065ZM50.0053 49.3041L49.2443 47.3345L48.4834 49.3041H50.0053ZM63.2512 44.7383V52.5717H61.0802L58.1035 49.0131V52.5717H55.5297V44.7383H57.7007L60.6773 48.2969V44.7383H63.2512ZM70.298 49.7293V52.5717H67.657V49.6957L64.7027 44.7383H67.4892L69.0894 47.4464L70.7009 44.7383H73.2523L70.298 49.7293Z" fill="#353535"/>
</svg>
