<svg width="197" height="111" viewBox="0 0 197 111" fill="none" xmlns="http://www.w3.org/2000/svg">
<path fill-rule="evenodd" clip-rule="evenodd" d="M162.854 67.7212H182.079L189.371 52.5273L196 15.5333L189.371 2.32119L163.517 1L120.427 18.1757L94.573 76.9697L78 88.2L101.865 91.503L131.034 82.9151L151.584 100.751L170.146 110L162.854 67.7212V67.7212Z" fill="white" stroke="#C9C9C9" stroke-width="2" stroke-linejoin="round"/>
<path d="M11.9169 46H8.97565L4.62694 38.3645V46H1.6688V33.7292H4.62694L8.96722 41.3647V33.7292H11.9169V46ZM21.3981 40.8001H16.746V43.7245H22.2409V46H13.7879V33.7292H22.2578V36.0131H16.746V38.6004H21.3981V40.8001ZM33.2475 36.0131H29.5646V46H26.6065V36.0131H22.991V33.7292H33.2475V36.0131ZM44.7598 46H41.8185V40.8759H37.4614V46H34.5033V33.7292H37.4614V38.6004H41.8185V33.7292H44.7598V46ZM54.2494 40.8001H49.5973V43.7245H55.0922V46H46.6392V33.7292H55.1091V36.0131H49.5973V38.6004H54.2494V40.8001ZM60.8568 41.6681H59.2555V46H56.2974V33.7292H61.1265C62.5817 33.7292 63.7194 34.0523 64.5397 34.6984C65.36 35.3445 65.7702 36.2575 65.7702 37.4374C65.7702 38.2914 65.596 38.9994 65.2476 39.5612C64.9049 40.1231 64.3655 40.5782 63.6295 40.9265L66.1915 45.8736V46H63.0227L60.8568 41.6681ZM59.2555 39.3842H61.1265C61.6883 39.3842 62.1097 39.2381 62.3906 38.946C62.6772 38.6482 62.8204 38.2352 62.8204 37.7071C62.8204 37.179 62.6772 36.766 62.3906 36.4682C62.1041 36.1648 61.6827 36.0131 61.1265 36.0131H59.2555V39.3842ZM70.515 43.7245H75.6643V46H67.5568V33.7292H70.515V43.7245ZM84.0499 43.7077H79.9962L79.2882 46H76.1278L80.6282 33.7292H83.4094L87.9435 46H84.7663L84.0499 43.7077ZM80.7041 41.4237H83.342L82.0188 37.1677L80.7041 41.4237ZM99.0934 46H96.1521L91.8034 38.3645V46H88.8453V33.7292H91.8034L96.1437 41.3647V33.7292H99.0934V46ZM100.964 46V33.7292H104.917C106.001 33.7292 106.976 33.9764 107.841 34.4709C108.707 34.9597 109.381 35.6536 109.864 36.5525C110.353 37.4458 110.6 38.4487 110.606 39.5612V40.1259C110.606 41.2496 110.367 42.2581 109.889 43.1514C109.417 44.0391 108.749 44.7358 107.884 45.2415C107.024 45.7415 106.063 45.9944 105.001 46H100.964ZM103.923 36.0131V43.7245H104.951C105.799 43.7245 106.451 43.4239 106.906 42.8227C107.361 42.2159 107.589 41.317 107.589 40.1259V39.5949C107.589 38.4094 107.361 37.5161 106.906 36.9149C106.451 36.3137 105.788 36.0131 104.917 36.0131H103.923ZM118.452 42.7385C118.452 42.3058 118.297 41.9687 117.988 41.7271C117.685 41.4855 117.148 41.2355 116.379 40.9771C115.609 40.7186 114.98 40.4686 114.491 40.227C112.901 39.446 112.106 38.3729 112.106 37.0076C112.106 36.3278 112.302 35.7294 112.696 35.2125C113.095 34.69 113.657 34.2854 114.381 33.9989C115.106 33.7067 115.921 33.5607 116.825 33.5607C117.707 33.5607 118.497 33.718 119.194 34.0326C119.896 34.3473 120.441 34.7967 120.829 35.3811C121.216 35.9598 121.41 36.6227 121.41 37.37H118.46C118.46 36.87 118.306 36.4823 117.997 36.207C117.693 35.9317 117.28 35.794 116.758 35.794C116.23 35.794 115.811 35.912 115.502 36.148C115.199 36.3783 115.047 36.6733 115.047 37.0329C115.047 37.3475 115.216 37.6341 115.553 37.8925C115.89 38.1454 116.483 38.4094 117.331 38.6847C118.179 38.9544 118.876 39.2466 119.421 39.5612C120.747 40.3253 121.41 41.3788 121.41 42.7216C121.41 43.7947 121.006 44.6375 120.196 45.2499C119.387 45.8623 118.278 46.1686 116.868 46.1686C115.873 46.1686 114.971 45.9916 114.162 45.6376C113.359 45.278 112.752 44.7892 112.342 44.1712C111.937 43.5475 111.735 42.8312 111.735 42.0221H114.702C114.702 42.6795 114.87 43.1655 115.207 43.4801C115.55 43.7891 116.103 43.9436 116.868 43.9436C117.356 43.9436 117.741 43.8397 118.022 43.6318C118.309 43.4183 118.452 43.1205 118.452 42.7385Z" fill="#353535"/>
<circle cx="146.505" cy="40.5051" r="9.50513" fill="#2C2948"/>
<circle cx="146.505" cy="40.5055" r="7.17053" fill="#A0182F"/>
</svg>
