<svg width="188" height="99" viewBox="0 0 188 99" fill="none" xmlns="http://www.w3.org/2000/svg">
<path fill-rule="evenodd" clip-rule="evenodd" d="M122.043 8.05857L109.555 7.78707L108.197 3.98633L95.1658 1L79.6915 6.70116L60.4159 14.3027L52 18.9179L55.8008 27.3338L52.5432 31.6776L57.9728 37.6502L61.7733 46.6091L61.5019 52.3103L67.7461 62.8981L74.2618 68.0563L84.3065 69.6852L84.0351 74.3004L91.365 77.5582L92.9938 73.4859L102.224 75.1148L104.125 80.5445L113.898 81.3589L120.957 89.7749L121.771 90.8608L126.929 88.4175L134.259 94.3901L141.861 90.8608L148.376 92.4897L157.607 90.3179L170.91 96.5619L173.896 97.6479L169.552 90.0464L179.868 76.2007L186.113 74.3004L186.927 69.4137L178.511 55.0251L177.154 47.695L171.996 39.8221L179.326 36.5643L178.511 30.0487L173.896 23.8046L172.267 16.4745L168.466 11.3164L161.679 9.68744L138.06 9.95894L122.043 8.05857Z" fill="white" stroke="#C9C9C9" stroke-width="2" stroke-linejoin="round"/>
<path d="M4.15991 40.8367V45H1.20178V32.7292H6.09829C7.03658 32.7292 7.86531 32.9034 8.58447 33.2517C9.30926 33.5945 9.8683 34.0861 10.2616 34.7266C10.6605 35.3615 10.86 36.0835 10.86 36.8925C10.86 38.0893 10.4301 39.0472 9.57052 39.7664C8.71651 40.4799 7.54224 40.8367 6.04772 40.8367H4.15991ZM4.15991 38.5528H6.09829C6.67138 38.5528 7.10681 38.4095 7.40459 38.123C7.70799 37.8364 7.85969 37.4319 7.85969 36.9094C7.85969 36.3363 7.70518 35.8784 7.39616 35.5357C7.08715 35.1929 6.66576 35.0188 6.132 35.0131H4.15991V38.5528ZM22.8358 39.1174C22.8358 40.3142 22.6138 41.3733 22.17 42.2947C21.7261 43.2161 21.094 43.9269 20.2737 44.4269C19.4591 44.9213 18.5292 45.1686 17.4842 45.1686C16.4391 45.1686 15.5121 44.9298 14.703 44.4522C13.8939 43.969 13.2619 43.2807 12.8068 42.3874C12.3573 41.4941 12.1213 40.4687 12.0988 39.3113V38.6202C12.0988 37.4178 12.318 36.3588 12.7562 35.4429C13.2001 34.5215 13.8321 33.8108 14.6524 33.3107C15.4784 32.8107 16.4166 32.5607 17.4673 32.5607C18.5067 32.5607 19.4338 32.8079 20.2485 33.3023C21.0631 33.7967 21.6952 34.5019 22.1447 35.4177C22.5998 36.3279 22.8302 37.3729 22.8358 38.5528V39.1174ZM19.8271 38.6033C19.8271 37.3841 19.622 36.4599 19.2118 35.8306C18.8073 35.1957 18.2258 34.8783 17.4673 34.8783C15.984 34.8783 15.2002 35.9908 15.116 38.2157L15.1075 39.1174C15.1075 40.3198 15.307 41.244 15.7059 41.8902C16.1048 42.5363 16.6976 42.8594 17.4842 42.8594C18.2314 42.8594 18.8073 42.5419 19.2118 41.907C19.6164 41.2721 19.8215 40.3591 19.8271 39.168V38.6033ZM27.3193 42.7245H32.4687V45H24.3612V32.7292H27.3193V42.7245ZM40.8543 42.7077H36.8005L36.0926 45H32.9322L37.4326 32.7292H40.2138L44.7479 45H41.5706L40.8543 42.7077ZM37.5085 40.4237H40.1463L38.8232 36.1677L37.5085 40.4237ZM55.8978 45H52.9565L48.6078 37.3645V45H45.6496V32.7292H48.6078L52.9481 40.3647V32.7292H55.8978V45ZM57.7687 45V32.7292H61.7213C62.8057 32.7292 63.7805 32.9764 64.6458 33.4709C65.511 33.9597 66.1852 34.6536 66.6684 35.5525C67.1572 36.4458 67.4044 37.4487 67.4101 38.5612V39.1259C67.4101 40.2496 67.1713 41.2581 66.6937 42.1514C66.2218 43.0391 65.5532 43.7358 64.6879 44.2415C63.8283 44.7415 62.8675 44.9944 61.8056 45H57.7687ZM60.7269 35.0131V42.7245H61.7551C62.6034 42.7245 63.2552 42.4239 63.7103 41.8227C64.1654 41.2159 64.3929 40.317 64.3929 39.1259V38.5949C64.3929 37.4094 64.1654 36.5161 63.7103 35.9149C63.2552 35.3137 62.5922 35.0131 61.7213 35.0131H60.7269Z" fill="#353535"/>
<circle cx="92.5051" cy="39.5051" r="9.50513" fill="#2C2948"/>
<circle cx="92.5051" cy="39.5055" r="7.17053" fill="#A0182F"/>
</svg>
