<svg width="171" height="111" viewBox="0 0 171 111" fill="none" xmlns="http://www.w3.org/2000/svg">
<path fill-rule="evenodd" clip-rule="evenodd" d="M138.004 70.9454V70.5041H136.901L136.239 69.6215L136.018 70.0627L135.798 70.5041V70.9454H136.901L137.783 71.166L138.004 70.9454ZM136.239 67.415H136.901L138.225 65.8704V65.2085L137.563 64.7672L135.136 65.2085L134.694 65.8704V66.5324L134.032 66.753L133.812 67.6357L134.032 68.0769L135.798 68.2976L136.239 67.415V67.415ZM98.2875 5.41296L80.1943 4.97163L70.9271 5.63362L59.0122 3.42714H44.0082L30.328 1L14 10.9292L18.413 16.666L17.5304 26.3745L21.7227 22.8441L26.3564 20.8583L29.004 27.6984H35.6235L37.6093 25.9332L44.2288 26.3745L47.0972 33.2146L41.8017 36.9656L41.3604 47.7774L39.3745 49.7632L38.7126 56.3826L33.8583 57.4859L38.2713 65.8704L34.7409 75.3583L38.7126 79.5506L36.9474 83.3016L32.5345 88.8178L33.417 93.4514L44.0082 95.6579L47.0972 103.822L51.5101 108.676L57.0263 110L61.66 104.484L68.9414 99.4089L79.9737 99.6296H94.7572L103.142 88.5972L111.747 85.7287L114.395 76.4616L121.014 70.0627L116.601 61.8988L121.014 50.6458L127.854 42.9231L128.958 38.2895L143.52 35.4211L154.111 26.1538L153.449 18.4312L140.211 20.1964L127.634 14.0182L123.441 16.8867L102.7 10.7085L98.2875 5.41296V5.41296ZM155.656 55.2794L155.877 54.6174L156.097 54.1761L156.318 53.9555L155.877 53.5142V53.2936L156.318 52.8522L155.877 52.6316L153.008 53.5142L151.464 54.3968L146.83 57.7065V58.3684L147.051 58.8098H147.933L148.375 59.6923L149.257 58.8098L149.919 58.5891L150.581 58.8098L151.243 59.251L151.464 60.5749L151.684 61.0162L153.008 61.2368L154.994 62.1195L155.877 61.6781L156.98 61.0162L157.421 59.6923L158.083 58.5891L158.745 57.4859L159.407 56.6033L159.186 55.7206L158.524 55.5L157.862 55.2794L156.759 55.7206L155.656 55.2794V55.2794ZM168.895 54.6174L169.115 53.7348V53.5142L168.012 51.9697L166.026 51.3077L163.82 51.5283L163.599 51.749V52.6316L163.82 52.8522L165.144 53.0729L168.674 54.6174H168.895V54.6174Z" fill="white" stroke="#C9C9C9" stroke-width="2" stroke-linejoin="round"/>
<path d="M7.61692 57.7385C7.61692 57.3058 7.46241 56.9687 7.1534 56.7271C6.85 56.4855 6.31343 56.2355 5.5437 55.9771C4.77397 55.7186 4.14469 55.4686 3.65589 55.227C2.06585 54.446 1.27084 53.3729 1.27084 52.0076C1.27084 51.3278 1.46748 50.7294 1.86078 50.2125C2.25969 49.69 2.82154 49.2854 3.54633 48.9989C4.27111 48.7067 5.08579 48.5607 5.99037 48.5607C6.87247 48.5607 7.66187 48.718 8.35856 49.0326C9.06087 49.3473 9.60587 49.7967 9.99354 50.3811C10.3812 50.9598 10.5751 51.6227 10.5751 52.37H7.62535C7.62535 51.87 7.47084 51.4823 7.16182 51.207C6.85842 50.9317 6.44547 50.794 5.92295 50.794C5.39481 50.794 4.97623 50.912 4.66721 51.148C4.36382 51.3783 4.21212 51.6733 4.21212 52.0329C4.21212 52.3475 4.38067 52.6341 4.71778 52.8925C5.05489 53.1454 5.64764 53.4094 6.49603 53.6847C7.34442 53.9544 8.04112 54.2466 8.58611 54.5612C9.91207 55.3253 10.5751 56.3788 10.5751 57.7216C10.5751 58.7947 10.1705 59.6375 9.36146 60.2499C8.5524 60.8623 7.44275 61.1686 6.03251 61.1686C5.03803 61.1686 4.13627 60.9916 3.3272 60.6376C2.52376 60.278 1.91696 59.7892 1.50681 59.1712C1.10228 58.5475 0.900016 57.8312 0.900016 57.0221H3.86658C3.86658 57.6795 4.03513 58.1655 4.37224 58.4801C4.71497 58.7891 5.26839 58.9436 6.03251 58.9436C6.52132 58.9436 6.90618 58.8397 7.18711 58.6318C7.47365 58.4183 7.61692 58.1205 7.61692 57.7385ZM15.0502 56.8367V61H12.092V48.7292H16.9886C17.9268 48.7292 18.7556 48.9034 19.4747 49.2517C20.1995 49.5945 20.7586 50.0861 21.1519 50.7266C21.5508 51.3615 21.7502 52.0835 21.7502 52.8925C21.7502 54.0893 21.3204 55.0472 20.4608 55.7664C19.6068 56.4799 18.4325 56.8367 16.938 56.8367H15.0502ZM15.0502 54.5528H16.9886C17.5616 54.5528 17.9971 54.4095 18.2949 54.123C18.5983 53.8364 18.75 53.4319 18.75 52.9094C18.75 52.3363 18.5954 51.8784 18.2864 51.5357C17.9774 51.1929 17.556 51.0188 17.0223 51.0131H15.0502V54.5528ZM28.8042 58.7077H24.7505L24.0426 61H20.8822L25.3826 48.7292H28.1637L32.6979 61H29.5206L28.8042 58.7077ZM25.4584 56.4237H28.0963L26.7732 52.1677L25.4584 56.4237ZM36.7516 61H33.8019V48.7292H36.7516V61ZM49.0561 61H46.1148L41.7661 53.3645V61H38.808V48.7292H41.7661L46.1064 56.3647V48.7292H49.0561V61Z" fill="#353535"/>
<circle cx="74.5051" cy="55.5051" r="9.50513" fill="#2C2948"/>
<circle cx="74.5051" cy="55.5055" r="7.17053" fill="#A0182F"/>
</svg>
