<svg width="591" height="842" viewBox="0 0 591 842" fill="none" xmlns="http://www.w3.org/2000/svg">
<path fill-rule="evenodd" clip-rule="evenodd" d="M574.956 350.904L588.436 325.024L583.943 276.834L537.211 227.751L525.528 171.528L481.493 125.122L442.849 121.553L435.659 141.186L406.901 142.971L390.724 132.262L343.094 166.174L334.107 115.306L337.702 55.5134L303.552 52.8363L295.463 18.9245L272.098 1.96829L245.137 14.4624L219.973 39.45L184.925 42.1272L171.445 103.704L151.673 113.521L183.127 163.496L219.973 204.548L246.035 242.029L233.453 292.005L218.176 301.821L233.453 330.379L271.199 375.892L280.186 407.127L281.983 433.899L307.147 485.66L283.781 538.312L264.009 597.212L252.327 651.649L249.63 686.454L260.414 718.581L266.706 684.669L292.768 712.334L321.526 743.569L331.411 772.126L352.98 793.544L361.068 783.728L403.306 808.715L408.698 838.165L441.95 831.026L457.228 807.823L429.369 778.373L398.813 771.234L369.157 739.107L356.575 690.024L333.209 638.263L299.957 636.479L293.666 595.427L306.248 545.452L326.019 462.457L324.222 399.987L368.257 399.095L365.562 443.716L407.8 442.824L455.431 468.704L436.559 399.987L463.519 353.582L527.326 341.98L574.956 350.904Z" fill="#FDFDFD" stroke="#ECEDF0" stroke-width="3.73302" stroke-linejoin="round"/>
<mask id="mask0" mask-type="alpha" maskUnits="userSpaceOnUse" x="151" y="1" width="441" height="841">
<path fill-rule="evenodd" clip-rule="evenodd" d="M576.52 352.771L590 326.891L585.506 278.7L538.775 229.617L527.092 173.394L483.057 126.989L444.412 123.419L437.222 143.052L408.465 144.837L392.288 134.128L344.658 168.04L335.671 117.172L339.266 57.38L305.115 54.7028L297.027 20.791L273.661 3.83481L246.7 16.3289L221.537 41.3165L186.489 43.9937L173.008 105.571L153.236 115.387L184.691 165.363L221.537 206.414L247.599 243.896L235.017 293.871L219.74 303.688L235.017 332.245L272.763 377.759L281.75 408.993L283.547 435.766L308.71 487.526L285.345 540.179L265.573 599.079L253.89 653.516L251.194 688.32L261.978 720.447L268.269 686.536L294.331 714.201L323.089 745.436L332.975 773.992L354.543 795.411L362.632 785.594L404.87 810.582L410.262 840.032L443.514 832.892L458.791 809.689L430.932 780.24L400.376 773.1L370.72 740.973L358.138 691.89L334.773 640.13L301.52 638.345L295.23 597.294L307.812 547.318L327.583 464.323L325.786 401.854L369.821 400.961L367.125 445.582L409.363 444.69L456.994 470.57L438.122 401.854L465.083 355.448L528.89 343.847L576.52 352.771Z" fill="#F2F2F2" stroke="#ECEDF0" stroke-width="3.73302" stroke-linejoin="round"/>
</mask>
<g mask="url(#mask0)">
<rect x="-439.046" y="600.363" width="993.33" height="1311.32" stroke="#ECEDF0" stroke-width="1.51422"/>
</g>
<path d="M18.1734 419.329C18.1734 421.218 17.8229 422.891 17.122 424.346C16.4211 425.801 15.4229 426.923 14.1276 427.713C12.8411 428.494 11.3727 428.884 9.72241 428.884C8.07215 428.884 6.6082 428.507 5.33058 427.753C4.05295 426.99 3.05481 425.903 2.33614 424.492C1.62635 423.082 1.25371 421.462 1.21822 419.635V418.543C1.21822 416.645 1.56424 414.972 2.25629 413.526C2.95721 412.071 3.95535 410.949 5.25072 410.159C6.55497 409.369 8.03666 408.975 9.6958 408.975C11.3372 408.975 12.8011 409.365 14.0876 410.146C15.3741 410.926 16.3723 412.04 17.0821 413.486C17.8007 414.923 18.1645 416.574 18.1734 418.437V419.329ZM13.4222 418.517C13.4222 416.591 13.0984 415.132 12.4507 414.138C11.8119 413.136 10.8936 412.634 9.6958 412.634C7.35348 412.634 6.11578 414.391 5.9827 417.905L5.96939 419.329C5.96939 421.227 6.28436 422.687 6.9143 423.707C7.54424 424.727 8.48028 425.238 9.72241 425.238C10.9024 425.238 11.8119 424.736 12.4507 423.734C13.0895 422.731 13.4133 421.289 13.4222 419.408V418.517ZM35.7806 409.241V421.924C35.7806 423.361 35.4745 424.608 34.8624 425.664C34.2502 426.71 33.3718 427.509 32.2273 428.059C31.0827 428.609 29.7297 428.884 28.1681 428.884C25.8081 428.884 23.9493 428.272 22.5918 427.048C21.2343 425.823 20.5423 424.146 20.5157 422.017V409.241H25.2136V422.11C25.2669 424.231 26.2517 425.291 28.1681 425.291C29.1352 425.291 29.8672 425.025 30.364 424.492C30.8609 423.96 31.1093 423.095 31.1093 421.897V409.241H35.7806ZM45.9085 421.777H43.3799V428.618H38.7085V409.241H46.3344C48.6323 409.241 50.429 409.751 51.7243 410.771C53.0197 411.792 53.6674 413.233 53.6674 415.096C53.6674 416.445 53.3924 417.563 52.8423 418.45C52.301 419.337 51.4493 420.056 50.287 420.606L54.3328 428.418V428.618H49.3288L45.9085 421.777ZM43.3799 418.171H46.3344C47.2216 418.171 47.887 417.94 48.3307 417.479C48.7831 417.008 49.0094 416.356 49.0094 415.522C49.0094 414.688 48.7831 414.036 48.3307 413.566C47.8782 413.087 47.2127 412.847 46.3344 412.847H43.3799V418.171ZM79.6857 419.329C79.6857 421.218 79.3352 422.891 78.6343 424.346C77.9334 425.801 76.9353 426.923 75.6399 427.713C74.3534 428.494 72.885 428.884 71.2347 428.884C69.5845 428.884 68.1205 428.507 66.8429 427.753C65.5653 426.99 64.5671 425.903 63.8485 424.492C63.1387 423.082 62.766 421.462 62.7306 419.635V418.543C62.7306 416.645 63.0766 414.972 63.7686 413.526C64.4695 412.071 65.4677 410.949 66.7631 410.159C68.0673 409.369 69.549 408.975 71.2081 408.975C72.8495 408.975 74.3135 409.365 75.6 410.146C76.8865 410.926 77.8846 412.04 78.5944 413.486C79.3131 414.923 79.6768 416.574 79.6857 418.437V419.329ZM74.9345 418.517C74.9345 416.591 74.6107 415.132 73.963 414.138C73.3242 413.136 72.4059 412.634 71.2081 412.634C68.8658 412.634 67.6281 414.391 67.495 417.905L67.4817 419.329C67.4817 421.227 67.7967 422.687 68.4266 423.707C69.0566 424.727 69.9926 425.238 71.2347 425.238C72.4148 425.238 73.3242 424.736 73.963 423.734C74.6018 422.731 74.9257 421.289 74.9345 419.408V418.517ZM94.2985 420.899H86.7659V428.618H82.0946V409.241H95.0571V412.847H86.7659V417.306H94.2985V420.899ZM109.204 420.899H101.672V428.618H97.0002V409.241H109.963V412.847H101.672V417.306H109.204V420.899ZM116.883 428.618H112.225V409.241H116.883V428.618ZM135.808 422.057C135.746 423.405 135.382 424.599 134.717 425.637C134.051 426.666 133.115 427.465 131.909 428.032C130.711 428.6 129.34 428.884 127.796 428.884C125.25 428.884 123.245 428.055 121.781 426.395C120.317 424.736 119.585 422.394 119.585 419.369V418.41C119.585 416.512 119.913 414.852 120.57 413.433C121.235 412.004 122.189 410.904 123.431 410.132C124.673 409.352 126.111 408.961 127.743 408.961C130.094 408.961 131.984 409.582 133.413 410.824C134.841 412.058 135.653 413.761 135.848 415.935H131.19C131.154 414.755 130.857 413.908 130.298 413.393C129.739 412.878 128.888 412.621 127.743 412.621C126.581 412.621 125.729 413.056 125.188 413.925C124.647 414.795 124.363 416.183 124.336 418.091V419.462C124.336 421.529 124.593 423.006 125.108 423.893C125.631 424.781 126.528 425.224 127.796 425.224C128.87 425.224 129.691 424.971 130.258 424.466C130.826 423.96 131.128 423.157 131.163 422.057H135.808ZM150.035 420.407H142.689V425.025H151.366V428.618H138.017V409.241H151.392V412.847H142.689V416.933H150.035V420.407ZM165.034 428.618H160.376V409.241H165.034V428.618ZM184.464 428.618H179.82L172.952 416.56V428.618H168.281V409.241H172.952L179.806 421.298V409.241H184.464V428.618ZM194.206 428.618V409.241H201.167C203.66 409.241 205.554 409.698 206.849 410.611C208.154 411.525 208.806 412.852 208.806 414.591C208.806 415.593 208.575 416.45 208.114 417.159C207.652 417.869 206.974 418.393 206.077 418.73C207.089 418.996 207.865 419.493 208.406 420.22C208.948 420.948 209.218 421.835 209.218 422.882C209.218 424.781 208.615 426.209 207.408 427.167C206.211 428.117 204.432 428.6 202.072 428.618H194.206ZM198.877 420.38V425.025H201.938C202.781 425.025 203.429 424.834 203.882 424.452C204.334 424.062 204.56 423.516 204.56 422.815C204.56 421.201 203.757 420.389 202.151 420.38H198.877ZM198.877 417.319H201.313C202.333 417.31 203.061 417.124 203.496 416.76C203.93 416.396 204.148 415.86 204.148 415.15C204.148 414.333 203.913 413.748 203.442 413.393C202.972 413.029 202.214 412.847 201.167 412.847H198.877V417.319ZM222.806 424.998H216.405L215.287 428.618H210.296L217.403 409.241H221.795L228.955 428.618H223.938L222.806 424.998ZM217.523 421.391H221.688L219.599 414.671L217.523 421.391ZM245.95 426.222C245.231 427.021 244.18 427.664 242.796 428.152C241.412 428.64 239.895 428.884 238.244 428.884C235.707 428.884 233.679 428.108 232.162 426.555C230.645 425.003 229.833 422.842 229.727 420.074L229.714 418.397C229.714 416.489 230.051 414.826 230.725 413.406C231.399 411.978 232.362 410.882 233.613 410.119C234.873 409.347 236.328 408.961 237.978 408.961C240.391 408.961 242.264 409.516 243.594 410.625C244.934 411.725 245.715 413.371 245.937 415.562H241.438C241.279 414.48 240.933 413.708 240.4 413.247C239.868 412.785 239.114 412.555 238.138 412.555C236.967 412.555 236.062 413.051 235.423 414.045C234.784 415.039 234.46 416.458 234.451 418.304V419.475C234.451 421.409 234.78 422.864 235.436 423.84C236.102 424.807 237.144 425.291 238.564 425.291C239.779 425.291 240.684 425.02 241.279 424.479V421.471H238.031V418.264H245.95V426.222ZM255.253 421.405L253.336 423.508V428.618H248.665V409.241H253.336V417.785L254.96 415.323L259.139 409.241H264.915L258.367 417.811L264.915 428.618H259.378L255.253 421.405ZM282.083 419.329C282.083 421.218 281.732 422.891 281.031 424.346C280.331 425.801 279.332 426.923 278.037 427.713C276.751 428.494 275.282 428.884 273.632 428.884C271.982 428.884 270.518 428.507 269.24 427.753C267.962 426.99 266.964 425.903 266.246 424.492C265.536 423.082 265.163 421.462 265.128 419.635V418.543C265.128 416.645 265.474 414.972 266.166 413.526C266.867 412.071 267.865 410.949 269.16 410.159C270.464 409.369 271.946 408.975 273.605 408.975C275.247 408.975 276.711 409.365 277.997 410.146C279.284 410.926 280.282 412.04 280.992 413.486C281.71 414.923 282.074 416.574 282.083 418.437V419.329ZM277.332 418.517C277.332 416.591 277.008 415.132 276.36 414.138C275.721 413.136 274.803 412.634 273.605 412.634C271.263 412.634 270.025 414.391 269.892 417.905L269.879 419.329C269.879 421.227 270.194 422.687 270.824 423.707C271.454 424.727 272.39 425.238 273.632 425.238C274.812 425.238 275.721 424.736 276.36 423.734C276.999 422.731 277.323 421.289 277.332 419.408V418.517ZM291.079 421.405L289.163 423.508V428.618H284.492V409.241H289.163V417.785L290.787 415.323L294.966 409.241H300.741L294.194 417.811L300.741 428.618H295.205L291.079 421.405Z" fill="#353535"/>
<circle cx="362.199" cy="420.246" r="27.256" fill="#2C2948"/>
<circle cx="362.199" cy="420.246" r="20.5615" fill="#A0182F"/>
</svg>
