<svg width="587" height="842" viewBox="0 0 587 842" fill="none" xmlns="http://www.w3.org/2000/svg">
<path fill-rule="evenodd" clip-rule="evenodd" d="M570.956 350.904L584.436 325.024L579.943 276.834L533.211 227.751L521.528 171.528L477.493 125.122L438.849 121.553L431.659 141.186L402.901 142.971L386.724 132.262L339.094 166.174L330.107 115.306L333.702 55.5134L299.552 52.8363L291.463 18.9245L268.097 1.96828L241.137 14.4624L215.973 39.45L180.925 42.1271L167.444 103.704L147.673 113.521L179.127 163.496L215.973 204.548L242.035 242.029L229.453 292.005L214.176 301.821L229.453 330.379L267.199 375.892L276.186 407.127L277.983 433.899L303.147 485.66L279.781 538.312L260.009 597.212L248.327 651.649L245.63 686.454L256.414 718.581L262.705 684.669L288.768 712.334L317.525 743.569L327.411 772.126L348.98 793.544L357.068 783.728L399.306 808.715L404.698 838.165L437.95 831.026L453.228 807.823L425.368 778.373L394.813 771.234L365.156 739.107L352.575 690.024L329.209 638.263L295.957 636.479L289.666 595.427L302.248 545.452L322.019 462.457L320.222 399.987L364.257 399.095L361.562 443.716L403.8 442.824L451.431 468.704L432.558 399.987L459.519 353.582L523.326 341.98L570.956 350.904V350.904Z" fill="#FDFDFD" stroke="#ECEDF0" stroke-width="3.73302" stroke-linejoin="round"/>
<mask id="mask0_117_1670" style="mask-type:alpha" maskUnits="userSpaceOnUse" x="147" y="1" width="441" height="841">
<path fill-rule="evenodd" clip-rule="evenodd" d="M572.52 352.771L586 326.891L581.506 278.7L534.775 229.617L523.092 173.394L479.057 126.989L440.412 123.419L433.222 143.052L404.465 144.837L388.288 134.128L340.658 168.04L331.671 117.172L335.266 57.38L301.115 54.7028L293.027 20.791L269.661 3.83481L242.7 16.3289L217.537 41.3165L182.489 43.9937L169.008 105.571L149.236 115.387L180.691 165.363L217.537 206.414L243.599 243.896L231.017 293.871L215.74 303.688L231.017 332.245L268.763 377.759L277.75 408.993L279.547 435.766L304.71 487.526L281.345 540.179L261.573 599.079L249.89 653.516L247.194 688.32L257.978 720.447L264.269 686.536L290.331 714.201L319.089 745.435L328.975 773.992L350.543 795.411L358.632 785.594L400.87 810.582L406.262 840.032L439.514 832.893L454.791 809.689L426.932 780.24L396.376 773.1L366.72 740.973L354.138 691.89L330.773 640.13L297.52 638.345L291.23 597.294L303.812 547.318L323.583 464.323L321.786 401.854L365.821 400.961L363.125 445.582L405.363 444.69L452.994 470.57L434.122 401.854L461.083 355.448L524.89 343.847L572.52 352.771V352.771Z" fill="#F2F2F2" stroke="#ECEDF0" stroke-width="3.73302" stroke-linejoin="round"/>
</mask>
<g mask="url(#mask0_117_1670)">
<rect x="-443.046" y="600.363" width="993.33" height="1311.32" stroke="#ECEDF0" stroke-width="1.51422"/>
</g>
<path d="M17.8734 312.925V313.711C17.8734 315.192 17.6649 316.523 17.2479 317.703C16.8398 318.874 16.2587 319.877 15.5045 320.711C14.7504 321.536 13.8587 322.17 12.8295 322.614C11.8003 323.049 10.6646 323.266 9.42249 323.266C8.17148 323.266 7.02694 323.049 5.98887 322.614C4.95967 322.17 4.06356 321.536 3.30053 320.711C2.54638 319.877 1.9608 318.874 1.5438 317.703C1.13567 316.523 0.931602 315.192 0.931602 313.711V312.925C0.931602 311.444 1.13567 310.113 1.5438 308.933C1.9608 307.753 2.54194 306.75 3.28722 305.925C4.04138 305.091 4.93305 304.457 5.96225 304.022C7.00032 303.578 8.14486 303.357 9.39587 303.357C10.638 303.357 11.7737 303.578 12.8029 304.022C13.8409 304.457 14.7371 305.091 15.4912 305.925C16.2454 306.75 16.8309 307.753 17.2479 308.933C17.6649 310.113 17.8734 311.444 17.8734 312.925ZM13.1356 313.711V312.899C13.1356 311.941 13.0513 311.098 12.8827 310.37C12.723 309.634 12.4835 309.017 12.1641 308.52C11.8447 308.023 11.4498 307.651 10.9796 307.402C10.5182 307.145 9.99032 307.016 9.39587 307.016C8.7748 307.016 8.23359 307.145 7.77222 307.402C7.31086 307.651 6.92491 308.023 6.61437 308.52C6.30384 309.017 6.06872 309.634 5.90902 310.37C5.75819 311.098 5.68277 311.941 5.68277 312.899V313.711C5.68277 314.66 5.75819 315.503 5.90902 316.239C6.06872 316.967 6.30384 317.583 6.61437 318.089C6.93378 318.595 7.32416 318.976 7.78553 319.234C8.25577 319.491 8.80142 319.62 9.42249 319.62C10.0169 319.62 10.5448 319.491 11.0062 319.234C11.4676 318.976 11.8535 318.595 12.1641 318.089C12.4835 317.583 12.723 316.967 12.8827 316.239C13.0513 315.503 13.1356 314.66 13.1356 313.711ZM30.8094 303.623H35.4807V316.279C35.4807 317.787 35.1657 319.065 34.5358 320.112C33.9059 321.15 33.0231 321.935 31.8874 322.468C30.7517 323 29.4164 323.266 27.8815 323.266C26.3643 323.266 25.029 323 23.8756 322.468C22.7311 321.935 21.835 321.15 21.1873 320.112C20.5485 319.065 20.2291 317.787 20.2291 316.279V303.623H24.9137V316.279C24.9137 317.078 25.029 317.73 25.2597 318.236C25.4904 318.732 25.8275 319.096 26.2712 319.327C26.7148 319.558 27.2516 319.673 27.8815 319.673C28.5203 319.673 29.0571 319.558 29.4919 319.327C29.9266 319.096 30.2549 318.732 30.4767 318.236C30.6985 317.73 30.8094 317.078 30.8094 316.279V303.623ZM38.4219 303.623H46.0477C47.5383 303.623 48.8337 303.845 49.9339 304.288C51.034 304.732 51.8813 305.388 52.4758 306.258C53.0791 307.127 53.3808 308.201 53.3808 309.478C53.3808 310.588 53.2078 311.515 52.8617 312.26C52.5157 313.005 52.0322 313.622 51.4111 314.11C50.7989 314.589 50.0847 314.984 49.2684 315.294L47.7379 316.159H41.3365L41.3099 312.553H46.0477C46.6422 312.553 47.1346 312.446 47.525 312.233C47.9154 312.02 48.2082 311.719 48.4034 311.328C48.6074 310.929 48.7095 310.454 48.7095 309.904C48.7095 309.345 48.6074 308.866 48.4034 308.467C48.1993 308.068 47.8976 307.762 47.4984 307.549C47.108 307.336 46.6245 307.229 46.0477 307.229H43.0932V323H38.4219V303.623ZM49.0289 323L44.7435 314.429L49.6943 314.403L54.0329 322.8V323H49.0289ZM67.6609 303.623V323H62.9896V303.623H67.6609ZM75.1936 311.688V315.281H66.33V311.688H75.1936ZM75.9522 303.623V307.229H66.33V303.623H75.9522ZM83.5514 307.695L78.8268 323H73.8095L80.9296 303.623H84.1103L83.5514 307.695ZM87.4641 323L82.7262 307.695L82.114 303.623H85.3347L92.4947 323H87.4641ZM87.2778 315.773V319.38H77.3363V315.773H87.2778ZM93.9188 303.623H101.545C103.035 303.623 104.331 303.845 105.431 304.288C106.531 304.732 107.378 305.388 107.973 306.258C108.576 307.127 108.878 308.201 108.878 309.478C108.878 310.588 108.705 311.515 108.359 312.26C108.013 313.005 107.529 313.622 106.908 314.11C106.296 314.589 105.582 314.984 104.765 315.294L103.235 316.159H96.8334L96.8067 312.553H101.545C102.139 312.553 102.631 312.446 103.022 312.233C103.412 312.02 103.705 311.719 103.9 311.328C104.104 310.929 104.206 310.454 104.206 309.904C104.206 309.345 104.104 308.866 103.9 308.467C103.696 308.068 103.394 307.762 102.995 307.549C102.605 307.336 102.121 307.229 101.545 307.229H98.5901V323H93.9188V303.623ZM104.526 323L100.24 314.429L105.191 314.403L109.53 322.8V323H104.526ZM114.015 303.623H117.821L122.146 317.104L126.472 303.623H130.278L123.69 323H120.602L114.015 303.623ZM111.699 303.623H115.638L116.37 318.475V323H111.699V303.623ZM128.654 303.623H132.607V323H127.922V318.475L128.654 303.623ZM145.583 317.85C145.583 317.548 145.538 317.277 145.45 317.038C145.361 316.789 145.197 316.559 144.957 316.346C144.718 316.133 144.372 315.92 143.919 315.707C143.476 315.485 142.89 315.254 142.162 315.015C141.311 314.731 140.49 314.412 139.7 314.057C138.911 313.693 138.205 313.271 137.584 312.792C136.963 312.304 136.471 311.737 136.107 311.089C135.743 310.432 135.561 309.669 135.561 308.8C135.561 307.966 135.748 307.216 136.12 306.551C136.493 305.876 137.012 305.304 137.677 304.834C138.352 304.355 139.141 303.991 140.046 303.742C140.951 303.485 141.941 303.357 143.014 303.357C144.434 303.357 145.685 303.605 146.767 304.102C147.859 304.59 148.71 305.286 149.322 306.191C149.944 307.087 150.254 308.148 150.254 309.372H145.609C145.609 308.884 145.507 308.454 145.303 308.081C145.108 307.708 144.811 307.416 144.412 307.203C144.012 306.99 143.511 306.883 142.908 306.883C142.322 306.883 141.83 306.972 141.43 307.149C141.031 307.327 140.73 307.566 140.525 307.868C140.321 308.161 140.219 308.485 140.219 308.84C140.219 309.132 140.299 309.399 140.459 309.638C140.628 309.869 140.863 310.086 141.164 310.29C141.475 310.494 141.847 310.69 142.282 310.876C142.726 311.062 143.223 311.244 143.773 311.422C144.802 311.75 145.716 312.118 146.514 312.526C147.322 312.925 148 313.382 148.551 313.897C149.11 314.403 149.531 314.979 149.815 315.627C150.108 316.275 150.254 317.007 150.254 317.823C150.254 318.692 150.085 319.464 149.748 320.139C149.411 320.813 148.928 321.385 148.298 321.855C147.668 322.317 146.914 322.667 146.035 322.907C145.157 323.146 144.176 323.266 143.094 323.266C142.1 323.266 141.12 323.142 140.153 322.894C139.195 322.636 138.325 322.246 137.544 321.722C136.764 321.19 136.138 320.511 135.668 319.686C135.206 318.852 134.976 317.863 134.976 316.718H139.66C139.66 317.286 139.736 317.765 139.887 318.156C140.037 318.546 140.259 318.861 140.552 319.101C140.845 319.331 141.204 319.5 141.63 319.606C142.056 319.704 142.544 319.753 143.094 319.753C143.688 319.753 144.168 319.668 144.531 319.5C144.895 319.322 145.161 319.092 145.33 318.808C145.498 318.515 145.583 318.196 145.583 317.85ZM164.414 303.623V323H159.756V303.623H164.414ZM183.885 303.623V323H179.227L172.373 310.942V323H167.702V303.623H172.373L179.227 315.68V303.623H183.885ZM202.211 303.623V323H197.539V303.623H202.211ZM208.04 303.623V307.229H191.843V303.623H208.04ZM223.079 311.315V314.908H213.137V311.315H223.079ZM214.694 303.623V323H210.023V303.623H214.694ZM226.22 303.623V323H221.562V303.623H226.22ZM242.523 319.407V323H232.195V319.407H242.523ZM233.859 303.623V323H229.187V303.623H233.859ZM241.192 311.315V314.789H232.195V311.315H241.192ZM242.562 303.623V307.229H232.195V303.623H242.562ZM12.4968 342.439H17.1548C17.0927 343.787 16.7289 344.976 16.0635 346.006C15.398 347.035 14.4753 347.838 13.2953 348.414C12.1241 348.982 10.74 349.266 9.14301 349.266C7.84764 349.266 6.68979 349.049 5.66946 348.614C4.65801 348.179 3.79739 347.554 3.08759 346.738C2.38668 345.921 1.84989 344.932 1.47725 343.77C1.11349 342.607 0.931602 341.299 0.931602 339.844V338.792C0.931602 337.337 1.12236 336.029 1.50387 334.866C1.89426 333.695 2.44435 332.701 3.15414 331.885C3.8728 331.06 4.73342 330.43 5.73601 329.995C6.73859 329.561 7.85207 329.343 9.07646 329.343C10.7622 329.343 12.1862 329.645 13.3485 330.248C14.5108 330.852 15.4114 331.681 16.0502 332.737C16.689 333.784 17.0661 334.977 17.1814 336.317H12.5234C12.5056 335.589 12.3814 334.982 12.1507 334.494C11.9201 333.997 11.5563 333.624 11.0594 333.376C10.5626 333.127 9.9016 333.003 9.07646 333.003C8.49976 333.003 7.99847 333.11 7.57259 333.322C7.14672 333.535 6.79182 333.873 6.5079 334.334C6.22399 334.795 6.01105 335.394 5.86909 336.131C5.73601 336.858 5.66946 337.737 5.66946 338.766V339.844C5.66946 340.873 5.73157 341.751 5.85578 342.479C5.98 343.206 6.17963 343.801 6.45467 344.262C6.72971 344.724 7.08461 345.065 7.51936 345.287C7.96298 345.5 8.50419 345.606 9.14301 345.606C9.8528 345.606 10.4517 345.495 10.9397 345.274C11.4276 345.043 11.8047 344.697 12.0709 344.236C12.3371 343.765 12.479 343.166 12.4968 342.439ZM32.4197 337.315V340.908H22.4782V337.315H32.4197ZM24.0353 329.623V349H19.364V329.623H24.0353ZM35.5606 329.623V349H30.9026V329.623H35.5606ZM46.9793 333.695L42.2548 349H37.2375L44.3576 329.623H47.5383L46.9793 333.695ZM50.8921 349L46.1542 333.695L45.542 329.623H48.7627L55.9227 349H50.8921ZM50.7058 341.773V345.38H40.7642V341.773H50.7058ZM62.3109 329.623V349H57.6528V329.623H62.3109ZM88.5687 329.623V349H83.9107L77.0568 336.942V349H72.3855V329.623H77.0568L83.9107 341.68V329.623H88.5687ZM99.9742 333.695L95.2496 349H90.2323L97.3524 329.623H100.533L99.9742 333.695ZM103.887 349L99.149 333.695L98.5369 329.623H101.758L108.918 349H103.887ZM103.701 341.773V345.38H93.7591V341.773H103.701ZM118.127 329.623V349H113.456V329.623H118.127ZM123.956 329.623V333.229H107.76V329.623H123.956ZM138.223 349H133.924L133.951 345.407H138.223C139.11 345.407 139.86 345.194 140.472 344.768C141.093 344.342 141.564 343.708 141.883 342.865C142.211 342.013 142.375 340.966 142.375 339.724V338.885C142.375 337.954 142.282 337.138 142.096 336.437C141.918 335.727 141.652 335.137 141.297 334.667C140.942 334.188 140.499 333.828 139.967 333.589C139.443 333.349 138.84 333.229 138.157 333.229H133.845V329.623H138.157C139.47 329.623 140.672 329.849 141.763 330.301C142.863 330.745 143.813 331.384 144.611 332.218C145.419 333.043 146.04 334.023 146.474 335.159C146.918 336.286 147.14 337.537 147.14 338.912V339.724C147.14 341.09 146.918 342.341 146.474 343.477C146.04 344.613 145.423 345.593 144.625 346.418C143.826 347.243 142.881 347.882 141.79 348.335C140.707 348.778 139.518 349 138.223 349ZM136.599 329.623V349H131.928V329.623H136.599ZM154.539 329.623V349H149.881V329.623H154.539ZM167.808 343.85C167.808 343.548 167.764 343.277 167.675 343.038C167.586 342.789 167.422 342.559 167.183 342.346C166.943 342.133 166.597 341.92 166.145 341.707C165.701 341.485 165.115 341.254 164.388 341.015C163.536 340.731 162.715 340.412 161.926 340.057C161.136 339.693 160.431 339.271 159.81 338.792C159.189 338.304 158.696 337.737 158.332 337.089C157.969 336.432 157.787 335.669 157.787 334.8C157.787 333.966 157.973 333.216 158.346 332.551C158.718 331.876 159.237 331.304 159.903 330.834C160.577 330.355 161.367 329.991 162.272 329.742C163.177 329.485 164.166 329.357 165.24 329.357C166.659 329.357 167.91 329.605 168.993 330.102C170.084 330.59 170.936 331.286 171.548 332.191C172.169 333.087 172.479 334.148 172.479 335.372H167.835C167.835 334.884 167.733 334.454 167.529 334.081C167.333 333.708 167.036 333.416 166.637 333.203C166.238 332.99 165.736 332.883 165.133 332.883C164.547 332.883 164.055 332.972 163.656 333.149C163.257 333.327 162.955 333.566 162.751 333.868C162.547 334.161 162.445 334.485 162.445 334.84C162.445 335.132 162.525 335.399 162.684 335.638C162.853 335.869 163.088 336.086 163.39 336.29C163.7 336.494 164.073 336.69 164.508 336.876C164.951 337.062 165.448 337.244 165.998 337.422C167.027 337.75 167.941 338.118 168.74 338.526C169.547 338.925 170.226 339.382 170.776 339.897C171.335 340.403 171.756 340.979 172.04 341.627C172.333 342.275 172.479 343.007 172.479 343.823C172.479 344.692 172.311 345.464 171.974 346.139C171.637 346.813 171.153 347.385 170.523 347.855C169.893 348.317 169.139 348.667 168.261 348.907C167.382 349.146 166.402 349.266 165.319 349.266C164.326 349.266 163.345 349.142 162.378 348.894C161.42 348.636 160.55 348.246 159.77 347.722C158.989 347.19 158.363 346.511 157.893 345.686C157.432 344.852 157.201 343.863 157.201 342.718H161.886C161.886 343.286 161.961 343.765 162.112 344.156C162.263 344.546 162.485 344.861 162.777 345.101C163.07 345.331 163.43 345.5 163.855 345.606C164.281 345.704 164.769 345.753 165.319 345.753C165.914 345.753 166.393 345.668 166.757 345.5C167.12 345.322 167.387 345.092 167.555 344.808C167.724 344.515 167.808 344.196 167.808 343.85ZM184.271 329.623V349H179.6V329.623H184.271ZM190.1 329.623V333.229H173.903V329.623H190.1ZM192.083 329.623H199.709C201.199 329.623 202.495 329.845 203.595 330.288C204.695 330.732 205.542 331.388 206.137 332.258C206.74 333.127 207.042 334.201 207.042 335.478C207.042 336.588 206.869 337.515 206.523 338.26C206.177 339.005 205.693 339.622 205.072 340.11C204.46 340.589 203.746 340.984 202.929 341.294L201.399 342.159H194.998L194.971 338.553H199.709C200.303 338.553 200.796 338.446 201.186 338.233C201.576 338.02 201.869 337.719 202.064 337.328C202.268 336.929 202.371 336.454 202.371 335.904C202.371 335.345 202.268 334.866 202.064 334.467C201.86 334.068 201.559 333.762 201.159 333.549C200.769 333.336 200.286 333.229 199.709 333.229H196.754V349H192.083V329.623ZM202.69 349L198.405 340.429L203.355 340.403L207.694 348.8V349H202.69ZM214.827 329.623V349H210.169V329.623H214.827ZM229.134 342.439H233.792C233.73 343.787 233.366 344.976 232.701 346.006C232.035 347.035 231.113 347.838 229.933 348.414C228.761 348.982 227.377 349.266 225.78 349.266C224.485 349.266 223.327 349.049 222.307 348.614C221.295 348.179 220.435 347.554 219.725 346.738C219.024 345.921 218.487 344.932 218.115 343.77C217.751 342.607 217.569 341.299 217.569 339.844V338.792C217.569 337.337 217.76 336.029 218.141 334.866C218.532 333.695 219.082 332.701 219.791 331.885C220.51 331.06 221.371 330.43 222.373 329.995C223.376 329.561 224.489 329.343 225.714 329.343C227.4 329.343 228.824 329.645 229.986 330.248C231.148 330.852 232.049 331.681 232.688 332.737C233.326 333.784 233.703 334.977 233.819 336.317H229.161C229.143 335.589 229.019 334.982 228.788 334.494C228.557 333.997 228.194 333.624 227.697 333.376C227.2 333.127 226.539 333.003 225.714 333.003C225.137 333.003 224.636 333.11 224.21 333.322C223.784 333.535 223.429 333.873 223.145 334.334C222.861 334.795 222.648 335.394 222.506 336.131C222.373 336.858 222.307 337.737 222.307 338.766V339.844C222.307 340.873 222.369 341.751 222.493 342.479C222.617 343.206 222.817 343.801 223.092 344.262C223.367 344.724 223.722 345.065 224.157 345.287C224.6 345.5 225.142 345.606 225.78 345.606C226.49 345.606 227.089 345.495 227.577 345.274C228.065 345.043 228.442 344.697 228.708 344.236C228.974 343.765 229.116 343.166 229.134 342.439ZM244.985 329.623V349H240.313V329.623H244.985ZM250.814 329.623V333.229H234.617V329.623H250.814Z" fill="#353535"/>
<circle cx="317.199" cy="324.256" r="27.256" fill="#2C2948"/>
<circle cx="317.199" cy="324.256" r="20.5615" fill="#A0182F"/>
</svg>
