<svg width="165" height="152" viewBox="0 0 165 152" fill="none" xmlns="http://www.w3.org/2000/svg">
<path fill-rule="evenodd" clip-rule="evenodd" d="M161.562 63.5934L164 58.9509L163.187 50.3063L154.735 41.5016L152.621 31.4162L144.657 23.0918L137.667 22.4515L136.366 25.9733L131.165 26.2935L128.239 24.3725L119.624 30.4557L117.998 21.3309L118.648 10.6051L112.471 10.1249L111.008 4.04166L106.782 1L101.905 3.24123L97.3539 7.7236L91.0145 8.20384L88.5763 19.2498L85 21.0107L90.6893 29.9755L97.3539 37.3394L102.068 44.063L99.7921 53.0277L97.0289 54.7887L99.7921 59.9114L106.619 68.0758L108.245 73.6788L108.57 78.4814L113.121 87.7663L108.895 97.2113L105.319 107.777L103.206 117.542L102.718 123.785L104.669 129.549L105.807 123.465L110.521 128.428L115.722 134.031L117.51 139.154L121.412 142.996L122.875 141.235L130.514 145.717L131.49 151L137.504 149.719L140.268 145.557L135.228 140.274L129.702 138.994L124.338 133.231L122.062 124.426L117.836 115.141L111.821 114.821L110.683 107.457L112.959 98.492L116.535 83.6041L116.21 72.3981L124.175 72.238L123.687 80.2423L131.327 80.0822L139.942 84.7247L136.529 72.3981L141.405 64.0737L152.947 61.9925L161.562 63.5934Z" fill="white" stroke="#C9C9C9" stroke-width="2" stroke-linejoin="round"/>
<path d="M17.8444 47.0131H14.1614V57H11.2033V47.0131H7.58781V44.7292H17.8444V47.0131ZM29.3566 57H26.4154V51.8759H22.0582V57H19.1001V44.7292H22.0582V49.6004H26.4154V44.7292H29.3566V57ZM38.3575 54.7077H34.3037L33.5958 57H30.4354L34.9358 44.7292H37.717L42.2511 57H39.0738L38.3575 54.7077ZM35.0117 52.4237H37.6495L36.3264 48.1677L35.0117 52.4237ZM46.3048 57H43.3551V44.7292H46.3048V57ZM51.3193 54.7245H56.4687V57H48.3612V44.7292H51.3193V54.7245ZM64.8543 54.7077H60.8005L60.0926 57H56.9322L61.4326 44.7292H64.2138L68.7479 57H65.5706L64.8543 54.7077ZM61.5085 52.4237H64.1463L62.8232 48.1677L61.5085 52.4237ZM79.8978 57H76.9565L72.6078 49.3645V57H69.6496V44.7292H72.6078L76.9481 52.3647V44.7292H79.8978V57ZM81.7687 57V44.7292H85.7213C86.8057 44.7292 87.7805 44.9764 88.6458 45.4709C89.511 45.9597 90.1852 46.6536 90.6684 47.5525C91.1572 48.4458 91.4044 49.4487 91.4101 50.5612V51.1259C91.4101 52.2496 91.1713 53.2581 90.6937 54.1514C90.2217 55.0391 89.5531 55.7358 88.6879 56.2415C87.8283 56.7415 86.8675 56.9944 85.8056 57H81.7687ZM84.7269 47.0131V54.7245H85.755C86.6034 54.7245 87.2552 54.4239 87.7103 53.8227C88.1654 53.2159 88.3929 52.317 88.3929 51.1259V50.5949C88.3929 49.4094 88.1654 48.5161 87.7103 47.9149C87.2552 47.3137 86.5922 47.0131 85.7213 47.0131H84.7269Z" fill="#353535"/>
<circle cx="116.505" cy="51.5051" r="9.50513" fill="#2C2948"/>
<circle cx="116.505" cy="51.5055" r="7.17053" fill="#A0182F"/>
</svg>
